<svg width="428" height="4604" fill="none" xmlns="http://www.w3.org/2000/svg"><path opacity=".4" d="M245.014 3877.6c-5.278-3.04-9.065-3.1-11.363-.24-2.359 2.85-3.477 7.7-3.477 14.47v36.66c0 6.95-.621 12.73-1.925 17.33-1.304 4.78-3.477 8.14-6.457 10.13-2.918 2.05-6.892 2.54-11.922 1.61-4.905-.87-11.052-3.48-18.379-7.7l-3.477-2.05v-28.89l4.408 2.55c5.278 3.04 8.755 3.41 10.494 1.24 1.863-2.18 2.794-6.65 2.794-13.42v-32.31c0-8.45.807-15.09 2.484-19.94 1.614-4.91 4.905-8.01 9.81-9.38-4.905-7.02-8.196-13.98-9.81-20.75-1.615-6.77-2.422-14.35-2.422-22.8v-32.31c0-6.77-.931-12.36-2.794-16.65-1.739-4.22-5.278-7.89-10.493-10.93l-4.409-2.55v-28.89l3.477 2.05c7.327 4.23 13.474 8.76 18.379 13.55 5.03 4.84 9.004 9.94 11.922 15.4a59.781 59.781 0 0 1 6.457 17.59c1.304 6.08 1.925 12.61 1.925 19.57v36.65c0 6.77 1.18 12.98 3.477 18.51 2.36 5.53 6.148 9.88 11.363 12.86l-.062 28.64Z" fill="url(#Background__a)"/><path opacity=".4" d="M112.013 3771.43c5.278 3.04 9.066 3.11 11.363.25 2.36-2.86 3.477-7.71 3.477-14.48v-36.65c0-6.96.621-12.74 1.925-17.33 1.304-4.79 3.415-8.14 6.333-10.19 3.043-1.99 7.017-2.49 11.922-1.62 5.03.93 11.239 3.54 18.566 7.83l3.477 2.05v28.89l-4.409-2.55c-5.278-3.04-8.817-3.48-10.68-1.3-1.738 2.23-2.607 6.71-2.607 13.54v32.31c0 8.38-.808 15.09-2.484 19.94-1.615 4.91-4.905 8.01-9.811 9.38 4.906 7.02 8.196 13.98 9.811 20.75 1.614 6.77 2.421 14.35 2.421 22.8v32.31c0 6.77.87 12.3 2.608 16.58 1.863 4.29 5.402 8.02 10.68 11l4.409 2.55v28.89l-3.478-2.05c-7.326-4.23-13.536-8.83-18.565-13.61-4.905-4.78-8.879-9.88-11.922-15.41-2.918-5.4-5.029-11.24-6.271-17.45-1.304-6.09-1.925-12.62-1.925-19.57v-36.66c0-6.77-1.18-12.98-3.477-18.51-2.359-5.53-6.147-9.88-11.363-12.86v-28.83Z" fill="url(#Background__b)"/><path opacity=".15" d="m262.958 3698.99 131.076 75.73-.062 314.43-131.076-75.67.062-314.49Z" fill="url(#Background__c)"/><path d="m238.308 3740.18 104.315 60.2v28.89l-104.315-60.2v-28.89Z" fill="#181818"/><path opacity=".2" d="m280.034 3873.94 98.85 57.09v87.42l-98.85-57.1v-87.41Z" fill="url(#Background__d)"/><path opacity=".15" d="m279.04 3806.9 100.34 57.97v9.88l-100.34-57.97v-9.88Zm0 19.88 86.742 50.08v9.88l-86.742-50.08v-9.88Zm0 19.64 73.641 42.49v9.88l-73.641-42.5v-9.87Z" fill="#fff"/><path opacity=".2" d="m262.958 3698.99 131.076 75.73v42.12l-131.138-75.67.062-42.18Z" fill="url(#Background__e)"/><path opacity=".2" d="M295.681 3739.25c0 6.4-3.726 9.38-8.32 6.71-4.595-2.67-8.321-9.94-8.321-16.34s3.726-9.38 8.321-6.71c4.594 2.67 8.32 10 8.32 16.34Z" fill="#fff"/><path opacity=".15" d="m26.762 3795.29 403.472 232.97-.062 314.61L26.699 4109.9l.063-314.61Z" fill="url(#Background__f)"/><path d="m0 3872.82 104.252 60.2v28.89L0 3901.77v-28.95Z" fill="#585858"/><path opacity=".15" d="m53.957 3952.22 231.479 133.69v9.88L53.957 3962.1v-9.88Zm0 19.88 199.688 115.31v9.87l-199.688-115.3v-9.88Zm0 19.69 169.946 98.16v9.88l-169.946-98.16v-9.88Z" fill="#fff"/><path opacity=".2" d="m210.181 4117.04 203.537 117.54V4322l-203.537-117.55v-87.41Z" fill="url(#Background__g)"/><path opacity=".15" d="m225.518 4143.2 30.673 17.7v28.89l-30.673-17.71v-28.88Zm37.565 23.11 30.673 17.7v28.89l-30.673-17.71v-28.88Zm37.752 21.43 30.673 17.71v28.88l-30.673-17.7v-28.89Zm37.752 22.8 30.673 17.71v28.89l-30.673-17.71v-28.89Z" fill="#fff"/><path opacity=".2" d="m16.081 4001.61 169.449 97.85v87.41l-169.449-97.91v-87.35Z" fill="url(#Background__h)"/><path opacity=".15" d="m33.157 4033.85 134.615 77.72v9.88l-134.615-77.72v-9.88Zm0 19.88 107.791 62.25v9.88l-107.791-62.31v-9.82Z" fill="#fff"/><path opacity=".2" d="m26.761 3795.29 402.914 232.72v42.62L26.761 3837.97v-42.68Z" fill="url(#Background__i)"/><path opacity=".2" d="M70.66 3841.94c0 6.4-3.725 9.39-8.32 6.71-4.595-2.67-8.32-9.94-8.32-16.34 0-6.39 3.725-9.38 8.32-6.71 4.595 2.68 8.32 10.01 8.32 16.34Z" fill="#fff"/><path opacity=".07" d="M97.74 3638.57c-68.813-39.73-124.996 7.33-124.996 106.09l-17.56-10.15c.04-111.55 63.639-165.82 142.556-120.27v24.33Z" fill="url(#Background__j)"/><path opacity=".07" d="M40.375 3783.77c0-43.84 25.668-64.58 57.324-46.32v-24.33c-41.353-23.87-74.884 3.22-74.884 60.51l17.56 10.14Z" fill="url(#Background__k)"/><path opacity=".07" d="M6.152 3763.56c0-69.99 40.986-103.07 91.466-73.9v-24.33c-60.176-34.75-109.026 4.69-109.026 88.09l17.56 10.14Z" fill="url(#Background__l)"/><path opacity=".24" d="M104.313 4167.15c-68.813-39.72-124.996 7.33-124.996 106.09l-17.56-10.14c.04-111.55 63.639-165.82 142.556-120.27v24.32Z" fill="url(#Background__m)"/><path opacity=".24" d="M46.948 4312.36c0-43.84 25.667-64.58 57.324-46.33v-24.32c-41.353-23.88-74.884 3.22-74.884 60.5l17.56 10.15Z" fill="url(#Background__n)"/><path opacity=".24" d="M12.725 4292.15c0-70 40.986-103.08 91.466-73.91v-24.32C44.015 4159.17-4.835 4198.6-4.835 4282l17.56 10.15Z" fill="url(#Background__o)"/><path opacity=".07" d="M430.175 3499.8c-7.487-4.36-12.91-4.48-16.271-.35-3.36 4.07-5.011 10.97-5.011 20.69v52.42c0 9.96-.943 18.21-2.77 24.76-1.828 6.78-4.952 11.61-9.256 14.44-4.185 2.89-9.845 3.66-17.037 2.3-7.015-1.3-15.799-4.95-26.293-11.02l-5.011-2.89v-41.27l6.249 3.59c7.487 4.37 12.498 4.9 15.033 1.71 2.653-3.06 4.009-9.49 4.009-19.22v-46.16c0-12.03 1.179-21.52 3.537-28.53 2.358-7.02 7.015-11.44 14.031-13.45-7.016-10.08-11.673-19.92-14.031-29.59-2.358-9.67-3.478-20.52-3.478-32.55v-46.16c0-9.73-1.356-17.63-4.009-23.82-2.476-6.07-7.487-11.26-15.033-15.62l-6.249-3.6v-41.27l5.011 2.89c10.494 6.07 19.278 12.5 26.293 19.34 7.192 6.9 12.851 14.26 17.037 21.99 4.363 7.84 7.428 16.21 9.256 25.11 1.827 8.67 2.77 18.04 2.77 27.95v52.41c0 9.73 1.651 18.57 5.011 26.47 3.361 7.96 8.784 14.09 16.271 18.4l-.059 41.03Z" fill="url(#Background__p)"/><path opacity=".07" d="M240.054 3347.99c7.487 4.36 12.91 4.48 16.271.35 3.36-4.07 5.011-10.96 5.011-20.69v-52.41c0-9.97.943-18.22 2.77-24.77 1.828-6.78 4.834-11.67 9.02-14.56 4.363-2.83 10.022-3.6 17.037-2.3 7.192 1.36 16.035 5.07 26.529 11.14l5.011 2.89v41.27l-6.249-3.59c-7.487-4.37-12.616-4.96-15.269-1.89-2.476 3.18-3.773 9.61-3.773 19.34v46.16c0 12.03-1.179 21.52-3.537 28.54-2.358 6.95-7.015 11.43-14.031 13.44 7.016 10.08 11.673 19.93 14.031 29.6 2.358 9.66 3.478 20.51 3.478 32.54v46.16c0 9.73 1.238 17.63 3.773 23.7 2.653 6.19 7.782 11.44 15.269 15.75l6.249 3.59v41.27l-5.011-2.89c-10.494-6.07-19.337-12.55-26.529-19.45-7.015-6.84-12.674-14.15-17.037-21.99-4.186-7.73-7.192-16.04-9.02-25-1.827-8.67-2.77-18.04-2.77-27.95v-52.41c0-9.73-1.651-18.57-5.011-26.47-3.361-7.96-8.784-14.09-16.271-18.4l.059-40.97Z" fill="url(#Background__q)"/><path opacity=".4" d="M406.594 3517.49c-7.487-4.36-12.91-4.48-16.271-.35-3.36 4.06-5.011 10.96-5.011 20.69v52.41c0 9.97-.943 18.22-2.77 24.76-1.828 6.79-4.952 11.62-9.256 14.45-4.185 2.89-9.845 3.65-17.037 2.3-7.015-1.3-15.799-4.95-26.293-11.03l-5.011-2.89v-41.27l6.249 3.6c7.487 4.36 12.498 4.89 15.033 1.71 2.653-3.06 4.009-9.49 4.009-19.22v-46.16c0-12.03 1.179-21.52 3.537-28.54 2.358-7.01 7.015-11.44 14.031-13.44-7.016-10.08-11.673-19.93-14.031-29.6-2.358-9.67-3.478-20.51-3.478-32.54v-46.16c0-9.73-1.356-17.63-4.009-23.82-2.476-6.08-7.487-11.26-15.033-15.63l-6.249-3.59v-41.27l5.011 2.89c10.494 6.07 19.278 12.5 26.293 19.33 7.192 6.9 12.852 14.27 17.037 22 4.363 7.84 7.428 16.21 9.256 25.11 1.827 8.67 2.77 18.04 2.77 27.95v52.41c0 9.73 1.651 18.57 5.011 26.47 3.361 7.96 8.784 14.09 16.271 18.4l-.059 41.03Z" fill="url(#Background__r)"/><path opacity=".4" d="M216.473 3365.68c7.487 4.36 12.911 4.48 16.271.35 3.36-4.07 5.011-10.97 5.011-20.69v-52.42c0-9.96.943-18.22 2.771-24.76 1.827-6.78 4.834-11.67 9.019-14.56 4.363-2.83 10.022-3.6 17.037-2.3 7.193 1.35 16.036 5.07 26.529 11.14l5.011 2.89v41.27l-6.249-3.6c-7.487-4.36-12.616-4.95-15.269-1.88-2.476 3.18-3.773 9.61-3.773 19.34v46.16c0 12.03-1.179 21.52-3.537 28.53-2.358 6.96-7.015 11.44-14.03 13.45 7.015 10.08 11.672 19.92 14.03 29.59 2.358 9.67 3.478 20.52 3.478 32.55v46.16c0 9.73 1.238 17.63 3.773 23.7 2.653 6.19 7.782 11.44 15.269 15.74l6.249 3.6v41.27l-5.011-2.89c-10.493-6.07-19.336-12.56-26.528-19.46-7.016-6.83-12.675-14.15-17.038-21.99-4.185-7.72-7.192-16.03-9.019-24.99-1.828-8.67-2.771-18.05-2.771-27.95v-52.41c0-9.73-1.651-18.57-5.011-26.47-3.36-7.96-8.784-14.1-16.271-18.4l.059-40.97Z" fill="url(#Background__s)"/><path opacity=".15" d="m85.599 3240.21 100.749 58.2-.059 241.31-100.75-58.19.06-241.32Z" fill="url(#Background__t)"/><path d="m66.675 3277.3 80.116 46.28v22.23l-80.116-46.28v-22.23Z" fill="#181818"/><path opacity=".15" d="m98.038 3373.75 76.992 44.46v34.54l-76.992-44.45v-34.55Zm-.059-41.8 77.11 44.51v8.02l-77.11-44.45v-8.08Zm0 15.68 66.675 38.5v8.02l-66.675-38.5v-8.02Z" fill="#fff"/><path opacity=".2" d="m85.599 3240.21 100.749 58.2v32.36l-100.75-58.19v-32.37Z" fill="url(#Background__u)"/><path opacity=".2" d="M110.772 3271.11c0 4.89-2.889 7.19-6.426 5.19-3.537-2.07-6.367-7.67-6.367-12.56 0-4.89 2.889-7.19 6.426-5.19 3.478 2.06 6.367 7.66 6.367 12.56Z" fill="#fff"/><path opacity=".15" d="m209.399 3463.96 100.749 58.19-.059 241.31-100.749-58.19.059-241.31Z" fill="url(#Background__v)"/><path d="m247.777 3534.17 80.116 46.23v22.17l-80.175-46.23.059-22.17Z" fill="#585858"/><path opacity=".15" d="m221.838 3557.11 77.05 44.51v34.49l-77.05-44.51v-34.49Zm-.118 49.29 77.109 44.51v8.02l-77.109-44.46v-8.07Zm0 14.5 66.675 38.5v8.02l-66.675-38.5v-8.02Z" fill="#fff"/><path opacity=".2" d="m209.399 3463.96 100.749 58.19v32.37l-100.749-58.2v-32.36Z" fill="url(#Background__w)"/><path opacity=".2" d="M234.571 3494.91c0 4.89-2.888 7.19-6.425 5.19-3.538-2.07-6.367-7.67-6.367-12.56 0-4.89 2.888-7.19 6.425-5.19 3.479 2.01 6.367 7.67 6.367 12.56Z" fill="#fff"/><path opacity=".3" d="M191.949 3497.39 16.566 3396.16l.059 91.44 159.937 92.33 15.505 22.93-.118-105.47Z" fill="url(#Background__x)"/><path opacity=".15" d="m146.85 3493.61-38.436-22.17v8.02l38.436 22.17v-8.02Zm0 16.1-95.149-54.95v8.02l95.208 54.95-.059-8.02Zm.059 16.09-114.898-66.32v8.01l114.898 66.33v-8.02Z" fill="#fff"/><path d="M156.342 3507.47c0 7.54 4.48 16.21 9.963 19.39 5.482 3.19 9.963-.35 9.963-7.9 0-7.54-4.481-16.21-9.963-19.39-5.542-3.19-9.963.35-9.963 7.9Z" fill="#585858"/><path opacity=".15" d="m33.898 3331.95-23.228-13.44v-7.84l23.228 13.44c1.886 1.12 4.657 3.3 7.015 6.72 2.535 3.66 4.362 8.26 4.362 13.27 0 5.54-1.414 8.66-4.067 9.61-2.535.82-5.483-.59-7.31-1.65l-9.55-5.55-.06-.05c-.825-.48-2.122-.95-3.124-.65-.825.23-1.828 1.12-1.828 4.18 0 3.07.944 4.96 1.769 6.08 1.002 1.41 2.3 2.41 3.124 2.83l.118.05 29.24 16.87v7.84l-29.063-16.81c-2.004-1.06-4.893-3.24-7.369-6.72-2.712-3.83-4.598-8.66-4.598-14.09 0-5.36 1.886-8.13 4.54-8.9 2.475-.71 5.364.35 7.368 1.53l9.492 5.49c1.355.76 2.417 1.12 3.065.88.53-.18 1.474-.94 1.474-4.89 0-2.6-.825-4.25-1.65-5.43-.944-1.29-2.182-2.36-2.948-2.77Z" fill="#fff"/><path d="M17.568 3319.34c0 6.72-3.95 9.84-8.784 7.07C3.95 3323.64 0 3315.92 0 3309.19c0-6.72 3.95-9.84 8.784-7.07 4.834 2.83 8.784 10.55 8.784 17.22Z" fill="#585858"/><path d="M64.14 3384.19c0 6.72-3.95 9.84-8.784 7.07-4.834-2.77-8.784-10.49-8.784-17.21 0-6.72 3.95-9.85 8.784-7.08 4.834 2.83 8.784 10.56 8.784 17.22Z" fill="#181818"/><path opacity=".2" d="M126.807 3589.18c3.537 2.07 6.366 6.96 6.366 11.09v17.98l11.909 6.84c3.537 2.06 6.367 6.95 6.367 11.08 0 4.07-2.889 5.72-6.367 3.71l-11.909-6.83v17.98c0 4.07-2.888 5.72-6.366 3.71-3.538-2.06-6.367-6.95-6.367-11.08v-17.98l-11.909-6.84c-3.537-2.07-6.366-6.96-6.366-11.09 0-4.06 2.888-5.72 6.366-3.71l11.909 6.84v-17.98c0-4.13 2.829-5.78 6.367-3.72Z" fill="url(#Background__y)"/><path opacity=".3" d="M422.217 3731.24c0-4.25-3.007-9.44-6.662-11.56l-52.468-30.3v-43.93l-52.113-30.06c-3.714-2.13-6.662-.42-6.662 3.83 0 4.24 3.007 9.43 6.662 11.55l38.79 22.41v43.92l65.85 37.97c3.655 2.12 6.603.41 6.603-3.83Z" fill="url(#Background__z)"/><path d="M430.352 3736.31c0 11.67-6.838 17.21-15.269 12.32-8.43-4.84-15.268-18.28-15.268-29.95 0-11.68 6.838-17.22 15.268-12.32 8.431 4.83 15.269 18.27 15.269 29.95Z" fill="#585858"/><path opacity=".4" d="M245.014 2837.6c-5.278-3.04-9.065-3.1-11.363-.24-2.359 2.85-3.477 7.7-3.477 14.47v36.66c0 6.95-.621 12.73-1.925 17.33-1.304 4.78-3.477 8.14-6.457 10.13-2.918 2.05-6.892 2.54-11.922 1.61-4.905-.87-11.052-3.48-18.379-7.7l-3.477-2.05v-28.89l4.408 2.55c5.278 3.04 8.755 3.41 10.494 1.24 1.863-2.18 2.794-6.65 2.794-13.42v-32.31c0-8.45.807-15.09 2.484-19.94 1.614-4.91 4.905-8.01 9.81-9.38-4.905-7.02-8.196-13.98-9.81-20.75-1.615-6.77-2.422-14.35-2.422-22.8v-32.31c0-6.77-.931-12.36-2.794-16.65-1.739-4.22-5.278-7.89-10.493-10.93l-4.409-2.55v-28.89l3.477 2.05c7.327 4.23 13.474 8.76 18.379 13.55 5.03 4.84 9.004 9.94 11.922 15.4a59.781 59.781 0 0 1 6.457 17.59c1.304 6.08 1.925 12.61 1.925 19.57v36.65c0 6.77 1.18 12.98 3.477 18.51 2.36 5.53 6.148 9.88 11.363 12.86l-.062 28.64Z" fill="url(#Background__A)"/><path opacity=".4" d="M112.013 2731.43c5.278 3.04 9.066 3.11 11.363.25 2.36-2.86 3.477-7.71 3.477-14.48v-36.65c0-6.96.621-12.74 1.925-17.33 1.304-4.79 3.415-8.14 6.333-10.19 3.043-1.99 7.017-2.49 11.922-1.62 5.03.93 11.239 3.54 18.566 7.83l3.477 2.05v28.89l-4.409-2.55c-5.278-3.04-8.817-3.48-10.68-1.3-1.738 2.23-2.607 6.71-2.607 13.54v32.31c0 8.38-.808 15.09-2.484 19.94-1.615 4.91-4.905 8.01-9.811 9.38 4.906 7.02 8.196 13.98 9.811 20.75 1.614 6.77 2.421 14.35 2.421 22.8v32.31c0 6.77.87 12.3 2.608 16.58 1.863 4.29 5.402 8.02 10.68 11l4.409 2.55v28.89l-3.478-2.05c-7.326-4.23-13.536-8.83-18.565-13.61-4.905-4.78-8.879-9.88-11.922-15.41-2.918-5.4-5.029-11.24-6.271-17.45-1.304-6.09-1.925-12.62-1.925-19.57v-36.66c0-6.77-1.18-12.98-3.477-18.51-2.359-5.53-6.147-9.88-11.363-12.86v-28.83Z" fill="url(#Background__B)"/><path opacity=".15" d="m262.958 2658.99 131.076 75.73-.062 314.43-131.076-75.67.062-314.49Z" fill="url(#Background__C)"/><path d="m238.308 2700.18 104.315 60.2v28.89l-104.315-60.2v-28.89Z" fill="#181818"/><path opacity=".2" d="m280.034 2833.94 98.85 57.09v87.42l-98.85-57.1v-87.41Z" fill="url(#Background__D)"/><path opacity=".15" d="m279.04 2766.9 100.34 57.97v9.88l-100.34-57.97v-9.88Zm0 19.88 86.742 50.08v9.88l-86.742-50.08v-9.88Zm0 19.64 73.641 42.49v9.88l-73.641-42.5v-9.87Z" fill="#fff"/><path opacity=".2" d="m262.958 2658.99 131.076 75.73v42.12l-131.138-75.67.062-42.18Z" fill="url(#Background__E)"/><path opacity=".2" d="M295.681 2699.25c0 6.4-3.726 9.38-8.32 6.71-4.595-2.67-8.321-9.94-8.321-16.34s3.726-9.38 8.321-6.71c4.594 2.67 8.32 10 8.32 16.34Z" fill="#fff"/><path opacity=".15" d="m26.762 2755.29 403.472 232.97-.062 314.61L26.699 3069.9l.063-314.61Z" fill="url(#Background__F)"/><path d="m0 2832.82 104.252 60.2v28.89L0 2861.77v-28.95Z" fill="#585858"/><path opacity=".15" d="m53.957 2912.22 231.479 133.69v9.88L53.957 2922.1v-9.88Zm0 19.88 199.688 115.31v9.87l-199.688-115.3v-9.88Zm0 19.69 169.946 98.16v9.88l-169.946-98.16v-9.88Z" fill="#fff"/><path opacity=".2" d="m210.181 3077.04 203.537 117.54V3282l-203.537-117.55v-87.41Z" fill="url(#Background__G)"/><path opacity=".15" d="m225.518 3103.2 30.673 17.7v28.89l-30.673-17.71v-28.88Zm37.565 23.11 30.673 17.7v28.89l-30.673-17.71v-28.88Zm37.752 21.43 30.673 17.71v28.88l-30.673-17.7v-28.89Zm37.752 22.8 30.673 17.71v28.89l-30.673-17.71v-28.89Z" fill="#fff"/><path opacity=".2" d="m16.081 2961.61 169.449 97.85v87.41l-169.449-97.91v-87.35Z" fill="url(#Background__H)"/><path opacity=".15" d="m33.157 2993.85 134.615 77.72v9.88l-134.615-77.72v-9.88Zm0 19.88 107.791 62.25v9.88l-107.791-62.31v-9.82Z" fill="#fff"/><path opacity=".2" d="m26.761 2755.29 402.914 232.72v42.62L26.761 2797.97v-42.68Z" fill="url(#Background__I)"/><path opacity=".2" d="M70.66 2801.94c0 6.4-3.725 9.39-8.32 6.71-4.595-2.67-8.32-9.94-8.32-16.34 0-6.39 3.725-9.38 8.32-6.71 4.595 2.68 8.32 10.01 8.32 16.34Z" fill="#fff"/><path opacity=".07" d="M97.74 2598.57c-68.813-39.73-124.996 7.33-124.996 106.09l-17.56-10.15c.04-111.55 63.639-165.82 142.556-120.27v24.33Z" fill="url(#Background__J)"/><path opacity=".07" d="M40.375 2743.77c0-43.84 25.668-64.58 57.324-46.32v-24.33c-41.353-23.87-74.884 3.22-74.884 60.51l17.56 10.14Z" fill="url(#Background__K)"/><path opacity=".07" d="M6.152 2723.56c0-69.99 40.986-103.07 91.466-73.9v-24.33c-60.176-34.75-109.026 4.69-109.026 88.09l17.56 10.14Z" fill="url(#Background__L)"/><path opacity=".24" d="M104.313 3127.15c-68.813-39.72-124.996 7.33-124.996 106.09l-17.56-10.14c.04-111.55 63.639-165.82 142.556-120.27v24.32Z" fill="url(#Background__M)"/><path opacity=".24" d="M46.948 3272.36c0-43.84 25.667-64.58 57.324-46.33v-24.32c-41.353-23.88-74.884 3.22-74.884 60.5l17.56 10.15Z" fill="url(#Background__N)"/><path opacity=".24" d="M12.725 3252.15c0-70 40.986-103.08 91.466-73.91v-24.32C44.015 3119.17-4.835 3158.6-4.835 3242l17.56 10.15Z" fill="url(#Background__O)"/><path opacity=".07" d="M430.175 2459.8c-7.487-4.36-12.91-4.48-16.271-.35-3.36 4.07-5.011 10.97-5.011 20.69v52.42c0 9.96-.943 18.21-2.77 24.76-1.828 6.78-4.952 11.61-9.256 14.44-4.185 2.89-9.845 3.66-17.037 2.3-7.015-1.3-15.799-4.95-26.293-11.02l-5.011-2.89v-41.27l6.249 3.59c7.487 4.37 12.498 4.9 15.033 1.71 2.653-3.06 4.009-9.49 4.009-19.22v-46.16c0-12.03 1.179-21.52 3.537-28.53 2.358-7.02 7.015-11.44 14.031-13.45-7.016-10.08-11.673-19.92-14.031-29.59-2.358-9.67-3.478-20.52-3.478-32.55v-46.16c0-9.73-1.356-17.63-4.009-23.82-2.476-6.07-7.487-11.26-15.033-15.62l-6.249-3.6v-41.27l5.011 2.89c10.494 6.07 19.278 12.5 26.293 19.34 7.192 6.9 12.851 14.26 17.037 21.99 4.363 7.84 7.428 16.21 9.256 25.11 1.827 8.67 2.77 18.04 2.77 27.95v52.41c0 9.73 1.651 18.57 5.011 26.47 3.361 7.96 8.784 14.09 16.271 18.4l-.059 41.03Z" fill="url(#Background__P)"/><path opacity=".07" d="M240.054 2307.99c7.487 4.36 12.91 4.48 16.271.35 3.36-4.07 5.011-10.96 5.011-20.69v-52.41c0-9.97.943-18.22 2.77-24.77 1.828-6.78 4.834-11.67 9.02-14.56 4.363-2.83 10.022-3.6 17.037-2.3 7.192 1.36 16.035 5.07 26.529 11.14l5.011 2.89v41.27l-6.249-3.59c-7.487-4.37-12.616-4.96-15.269-1.89-2.476 3.18-3.773 9.61-3.773 19.34v46.16c0 12.03-1.179 21.52-3.537 28.54-2.358 6.95-7.015 11.43-14.031 13.44 7.016 10.08 11.673 19.93 14.031 29.6 2.358 9.66 3.478 20.51 3.478 32.54v46.16c0 9.73 1.238 17.63 3.773 23.7 2.653 6.19 7.782 11.44 15.269 15.75l6.249 3.59v41.27l-5.011-2.89c-10.494-6.07-19.337-12.55-26.529-19.45-7.015-6.84-12.674-14.15-17.037-21.99-4.186-7.73-7.192-16.04-9.02-25-1.827-8.67-2.77-18.04-2.77-27.95v-52.41c0-9.73-1.651-18.57-5.011-26.47-3.361-7.96-8.784-14.09-16.271-18.4l.059-40.97Z" fill="url(#Background__Q)"/><path opacity=".4" d="M406.594 2477.49c-7.487-4.36-12.91-4.48-16.271-.35-3.36 4.06-5.011 10.96-5.011 20.69v52.41c0 9.97-.943 18.22-2.77 24.77-1.828 6.78-4.952 11.61-9.256 14.44-4.185 2.89-9.845 3.65-17.037 2.3-7.015-1.3-15.799-4.95-26.293-11.03l-5.011-2.89v-41.26l6.249 3.59c7.487 4.36 12.498 4.89 15.033 1.71 2.653-3.06 4.009-9.49 4.009-19.22v-46.16c0-12.03 1.179-21.52 3.537-28.54 2.358-7.01 7.015-11.44 14.031-13.44-7.016-10.08-11.673-19.93-14.031-29.6-2.358-9.67-3.478-20.51-3.478-32.54v-46.16c0-9.73-1.356-17.63-4.009-23.82-2.476-6.08-7.487-11.26-15.033-15.63l-6.249-3.59v-41.27l5.011 2.89c10.494 6.07 19.278 12.5 26.293 19.33 7.192 6.9 12.852 14.27 17.037 22 4.363 7.84 7.428 16.21 9.256 25.11 1.827 8.67 2.77 18.04 2.77 27.95v52.41c0 9.73 1.651 18.57 5.011 26.47 3.361 7.96 8.784 14.09 16.271 18.4l-.059 41.03Z" fill="url(#Background__R)"/><path opacity=".4" d="M216.473 2325.68c7.487 4.36 12.911 4.48 16.271.35 3.36-4.07 5.011-10.97 5.011-20.69v-52.42c0-9.96.943-18.22 2.771-24.76 1.827-6.78 4.834-11.67 9.019-14.56 4.363-2.83 10.022-3.6 17.037-2.3 7.193 1.35 16.036 5.07 26.529 11.14l5.011 2.89v41.27l-6.249-3.6c-7.487-4.36-12.616-4.95-15.269-1.88-2.476 3.18-3.773 9.61-3.773 19.34v46.16c0 12.03-1.179 21.52-3.537 28.53-2.358 6.96-7.015 11.44-14.03 13.45 7.015 10.08 11.672 19.92 14.03 29.59 2.358 9.67 3.478 20.52 3.478 32.55v46.16c0 9.73 1.238 17.63 3.773 23.7 2.653 6.19 7.782 11.44 15.269 15.74l6.249 3.6v41.27l-5.011-2.89c-10.493-6.07-19.336-12.56-26.528-19.46-7.016-6.83-12.675-14.15-17.038-21.99-4.185-7.72-7.192-16.03-9.019-24.99-1.828-8.67-2.771-18.05-2.771-27.95v-52.41c0-9.73-1.651-18.57-5.011-26.47-3.36-7.96-8.784-14.1-16.271-18.4l.059-40.97Z" fill="url(#Background__S)"/><path opacity=".15" d="m85.599 2200.21 100.749 58.2-.059 241.31-100.75-58.19.06-241.32Z" fill="url(#Background__T)"/><path d="m66.675 2237.3 80.116 46.28v22.23l-80.116-46.28v-22.23Z" fill="#181818"/><path opacity=".15" d="m98.038 2333.75 76.992 44.46v34.55l-76.992-44.46v-34.55Zm-.059-41.8 77.11 44.51v8.02l-77.11-44.45v-8.08Zm0 15.68 66.675 38.5v8.02l-66.675-38.5v-8.02Z" fill="#fff"/><path opacity=".2" d="m85.599 2200.21 100.749 58.2v32.36l-100.75-58.19v-32.37Z" fill="url(#Background__U)"/><path opacity=".2" d="M110.772 2231.11c0 4.89-2.889 7.19-6.426 5.19-3.537-2.07-6.367-7.67-6.367-12.56 0-4.89 2.889-7.19 6.426-5.19 3.478 2.06 6.367 7.66 6.367 12.56Z" fill="#fff"/><path opacity=".15" d="m209.399 2423.96 100.749 58.19-.059 241.31-100.749-58.19.059-241.31Z" fill="url(#Background__V)"/><path d="m247.777 2494.17 80.116 46.23v22.17l-80.175-46.23.059-22.17Z" fill="#585858"/><path opacity=".15" d="m221.838 2517.11 77.05 44.51v34.49l-77.05-44.51v-34.49Zm-.118 49.29 77.109 44.51v8.02l-77.109-44.46v-8.07Zm0 14.5 66.675 38.5v8.02l-66.675-38.5v-8.02Z" fill="#fff"/><path opacity=".2" d="m209.399 2423.96 100.749 58.19v32.36l-100.749-58.19v-32.36Z" fill="url(#Background__W)"/><path opacity=".2" d="M234.571 2454.91c0 4.89-2.888 7.19-6.425 5.19-3.538-2.07-6.367-7.67-6.367-12.56 0-4.89 2.888-7.19 6.425-5.19 3.479 2.01 6.367 7.67 6.367 12.56Z" fill="#fff"/><path opacity=".3" d="M191.949 2457.39 16.566 2356.16l.059 91.44 159.937 92.33 15.505 22.93-.118-105.47Z" fill="url(#Background__X)"/><path opacity=".15" d="m146.85 2453.61-38.436-22.17v8.02l38.436 22.17v-8.02Zm0 16.1-95.149-54.95v8.02l95.208 54.95-.059-8.02Zm.059 16.09-114.898-66.32v8.01l114.898 66.33v-8.02Z" fill="#fff"/><path d="M156.342 2467.47c0 7.54 4.48 16.21 9.963 19.39 5.482 3.19 9.963-.35 9.963-7.9 0-7.54-4.481-16.21-9.963-19.39-5.542-3.19-9.963.35-9.963 7.9Z" fill="#585858"/><path opacity=".15" d="m33.898 2291.95-23.228-13.44v-7.84l23.228 13.44c1.886 1.12 4.657 3.3 7.015 6.72 2.535 3.66 4.362 8.26 4.362 13.27 0 5.54-1.414 8.66-4.067 9.61-2.535.82-5.483-.59-7.31-1.65l-9.55-5.55-.06-.05c-.825-.48-2.122-.95-3.124-.65-.825.23-1.828 1.12-1.828 4.18 0 3.07.944 4.96 1.769 6.08 1.002 1.41 2.3 2.41 3.124 2.83l.118.05 29.24 16.87v7.84l-29.063-16.81c-2.004-1.06-4.893-3.24-7.369-6.72-2.712-3.83-4.598-8.66-4.598-14.09 0-5.36 1.886-8.13 4.54-8.9 2.475-.71 5.364.35 7.368 1.53l9.492 5.49c1.355.76 2.417 1.12 3.065.88.53-.18 1.474-.94 1.474-4.89 0-2.6-.825-4.25-1.65-5.43-.944-1.29-2.182-2.36-2.948-2.77Z" fill="#fff"/><path d="M17.568 2279.34c0 6.72-3.95 9.84-8.784 7.07C3.95 2283.64 0 2275.92 0 2269.19c0-6.72 3.95-9.84 8.784-7.07 4.834 2.83 8.784 10.55 8.784 17.22Z" fill="#585858"/><path d="M64.14 2344.19c0 6.72-3.95 9.84-8.784 7.07-4.834-2.77-8.784-10.49-8.784-17.21 0-6.72 3.95-9.85 8.784-7.08 4.834 2.83 8.784 10.56 8.784 17.22Z" fill="#181818"/><path opacity=".2" d="M126.807 2549.18c3.537 2.07 6.366 6.96 6.366 11.09v17.98l11.909 6.84c3.537 2.06 6.367 6.95 6.367 11.08 0 4.07-2.889 5.72-6.367 3.71l-11.909-6.83v17.98c0 4.07-2.888 5.72-6.366 3.71-3.538-2.06-6.367-6.95-6.367-11.08v-17.98l-11.909-6.84c-3.537-2.07-6.366-6.96-6.366-11.09 0-4.06 2.888-5.72 6.366-3.71l11.909 6.84v-17.98c0-4.13 2.829-5.78 6.367-3.72Z" fill="url(#Background__Y)"/><path opacity=".3" d="M422.217 2691.24c0-4.25-3.007-9.44-6.662-11.56l-52.468-30.3v-43.93l-52.113-30.06c-3.714-2.13-6.662-.42-6.662 3.83 0 4.24 3.007 9.43 6.662 11.55l38.79 22.41v43.92l65.85 37.97c3.655 2.12 6.603.41 6.603-3.83Z" fill="url(#Background__Z)"/><path d="M430.352 2696.31c0 11.67-6.838 17.21-15.269 12.32-8.43-4.84-15.268-18.28-15.268-29.95 0-11.68 6.838-17.22 15.268-12.32 8.431 4.83 15.269 18.27 15.269 29.95Z" fill="#585858"/><path opacity=".4" d="M245.014 1813.6c-5.278-3.04-9.065-3.1-11.363-.24-2.359 2.85-3.477 7.7-3.477 14.47v36.66c0 6.95-.621 12.73-1.925 17.33-1.304 4.78-3.477 8.14-6.457 10.13-2.918 2.05-6.892 2.54-11.922 1.61-4.905-.87-11.052-3.48-18.379-7.7l-3.477-2.05v-28.89l4.408 2.55c5.278 3.04 8.755 3.41 10.494 1.24 1.863-2.18 2.794-6.65 2.794-13.42v-32.31c0-8.45.807-15.09 2.484-19.94 1.614-4.91 4.905-8.01 9.81-9.38-4.905-7.02-8.196-13.98-9.81-20.75-1.615-6.77-2.422-14.35-2.422-22.8v-32.31c0-6.77-.931-12.36-2.794-16.65-1.739-4.22-5.278-7.89-10.493-10.93l-4.409-2.55v-28.89l3.477 2.05c7.327 4.23 13.474 8.76 18.379 13.55 5.03 4.84 9.004 9.94 11.922 15.4a59.781 59.781 0 0 1 6.457 17.59c1.304 6.08 1.925 12.61 1.925 19.57v36.65c0 6.77 1.18 12.98 3.477 18.51 2.36 5.53 6.148 9.88 11.363 12.86l-.062 28.64Z" fill="url(#Background__aa)"/><path opacity=".4" d="M112.013 1707.43c5.278 3.04 9.066 3.11 11.363.25 2.36-2.86 3.477-7.71 3.477-14.48v-36.65c0-6.96.621-12.74 1.925-17.33 1.304-4.79 3.415-8.14 6.333-10.19 3.043-1.99 7.017-2.49 11.922-1.62 5.03.93 11.239 3.54 18.566 7.83l3.477 2.05v28.89l-4.409-2.55c-5.278-3.04-8.817-3.48-10.68-1.3-1.738 2.23-2.607 6.71-2.607 13.54v32.31c0 8.38-.808 15.09-2.484 19.94-1.615 4.91-4.905 8.01-9.811 9.38 4.906 7.02 8.196 13.98 9.811 20.75 1.614 6.77 2.421 14.35 2.421 22.8v32.31c0 6.77.87 12.3 2.608 16.58 1.863 4.29 5.402 8.02 10.68 11l4.409 2.55v28.89l-3.478-2.05c-7.326-4.23-13.536-8.83-18.565-13.61-4.905-4.78-8.879-9.88-11.922-15.41-2.918-5.4-5.029-11.24-6.271-17.45-1.304-6.09-1.925-12.62-1.925-19.57v-36.66c0-6.77-1.18-12.98-3.477-18.51-2.359-5.53-6.147-9.88-11.363-12.86v-28.83Z" fill="url(#Background__ab)"/><path opacity=".15" d="m262.958 1634.99 131.076 75.73-.062 314.43-131.076-75.67.062-314.49Z" fill="url(#Background__ac)"/><path d="m238.308 1676.18 104.315 60.2v28.89l-104.315-60.2v-28.89Z" fill="#181818"/><path opacity=".2" d="m280.034 1809.94 98.85 57.09v87.42l-98.85-57.1v-87.41Z" fill="url(#Background__ad)"/><path opacity=".15" d="m279.04 1742.9 100.34 57.97v9.88l-100.34-57.97v-9.88Zm0 19.88 86.742 50.08v9.88l-86.742-50.08v-9.88Zm0 19.64 73.641 42.49v9.88l-73.641-42.5v-9.87Z" fill="#fff"/><path opacity=".2" d="m262.958 1634.99 131.076 75.73v42.12l-131.138-75.67.062-42.18Z" fill="url(#Background__ae)"/><path opacity=".2" d="M295.681 1675.25c0 6.4-3.726 9.38-8.32 6.71-4.595-2.67-8.321-9.94-8.321-16.34s3.726-9.38 8.321-6.71c4.594 2.67 8.32 10 8.32 16.34Z" fill="#fff"/><path opacity=".15" d="m26.762 1731.29 403.472 232.97-.062 314.61L26.699 2045.9l.063-314.61Z" fill="url(#Background__af)"/><path d="m0 1808.82 104.252 60.2v28.89L0 1837.77v-28.95Z" fill="#585858"/><path opacity=".15" d="m53.957 1888.22 231.479 133.69v9.88L53.957 1898.1v-9.88Zm0 19.88 199.688 115.31v9.87l-199.688-115.3v-9.88Zm0 19.69 169.946 98.16v9.88l-169.946-98.16v-9.88Z" fill="#fff"/><path opacity=".2" d="m210.181 2053.04 203.537 117.54V2258l-203.537-117.55v-87.41Z" fill="url(#Background__ag)"/><path opacity=".15" d="m225.518 2079.2 30.673 17.7v28.89l-30.673-17.71v-28.88Zm37.565 23.11 30.673 17.7v28.89l-30.673-17.71v-28.88Zm37.752 21.43 30.673 17.71v28.88l-30.673-17.7v-28.89Zm37.752 22.8 30.673 17.71v28.89l-30.673-17.71v-28.89Z" fill="#fff"/><path opacity=".2" d="m16.081 1937.61 169.449 97.85v87.41l-169.449-97.91v-87.35Z" fill="url(#Background__ah)"/><path opacity=".15" d="m33.157 1969.85 134.615 77.72v9.88l-134.615-77.72v-9.88Zm0 19.88 107.791 62.25v9.88l-107.791-62.31v-9.82Z" fill="#fff"/><path opacity=".2" d="m26.761 1731.29 402.914 232.72v42.62L26.761 1773.97v-42.68Z" fill="url(#Background__ai)"/><path opacity=".2" d="M70.66 1777.94c0 6.4-3.725 9.38-8.32 6.71-4.595-2.67-8.32-9.94-8.32-16.34 0-6.39 3.725-9.38 8.32-6.71 4.595 2.68 8.32 10.01 8.32 16.34Z" fill="#fff"/><path opacity=".07" d="M97.74 1574.57c-68.813-39.73-124.996 7.33-124.996 106.09l-17.56-10.15c.04-111.55 63.639-165.82 142.556-120.27v24.33Z" fill="url(#Background__aj)"/><path opacity=".07" d="M40.375 1719.77c0-43.84 25.668-64.58 57.324-46.32v-24.33c-41.353-23.87-74.884 3.22-74.884 60.51l17.56 10.14Z" fill="url(#Background__ak)"/><path opacity=".07" d="M6.152 1699.56c0-69.99 40.986-103.07 91.466-73.9v-24.33c-60.176-34.75-109.026 4.69-109.026 88.09l17.56 10.14Z" fill="url(#Background__al)"/><path opacity=".24" d="M104.313 2103.15c-68.813-39.72-124.996 7.33-124.996 106.09l-17.56-10.14c.04-111.55 63.639-165.82 142.556-120.27v24.32Z" fill="url(#Background__am)"/><path opacity=".24" d="M46.948 2248.36c0-43.84 25.667-64.58 57.324-46.33v-24.32c-41.353-23.88-74.884 3.22-74.884 60.5l17.56 10.15Z" fill="url(#Background__an)"/><path opacity=".24" d="M12.725 2228.15c0-70 40.986-103.08 91.466-73.91v-24.32C44.015 2095.17-4.835 2134.6-4.835 2218l17.56 10.15Z" fill="url(#Background__ao)"/><path opacity=".07" d="M430.175 1445.28c-7.487-4.36-12.91-4.48-16.271-.35-3.36 4.07-5.011 10.96-5.011 20.69v52.42c0 9.96-.943 18.21-2.77 24.76-1.828 6.78-4.952 11.61-9.256 14.44-4.185 2.89-9.845 3.66-17.037 2.3-7.015-1.3-15.799-4.95-26.293-11.02l-5.011-2.89v-41.27l6.249 3.59c7.487 4.37 12.498 4.9 15.033 1.71 2.653-3.06 4.009-9.49 4.009-19.22v-46.16c0-12.03 1.179-21.52 3.537-28.53 2.358-7.02 7.015-11.44 14.031-13.45-7.016-10.08-11.673-19.92-14.031-29.59-2.358-9.67-3.478-20.52-3.478-32.55V1294c0-9.73-1.356-17.63-4.009-23.82-2.476-6.07-7.487-11.26-15.033-15.62l-6.249-3.6v-41.27l5.011 2.89c10.494 6.07 19.278 12.5 26.293 19.34 7.192 6.89 12.851 14.26 17.037 21.99 4.363 7.84 7.428 16.21 9.256 25.11 1.827 8.67 2.77 18.04 2.77 27.95v52.41c0 9.73 1.651 18.57 5.011 26.47 3.361 7.96 8.784 14.09 16.271 18.4l-.059 41.03Z" fill="url(#Background__ap)"/><path opacity=".07" d="M240.054 1293.47c7.487 4.36 12.91 4.48 16.271.35 3.36-4.07 5.011-10.96 5.011-20.69v-52.42c0-9.96.943-18.21 2.77-24.76 1.828-6.78 4.834-11.67 9.02-14.56 4.363-2.83 10.022-3.6 17.037-2.3 7.192 1.36 16.035 5.07 26.529 11.14l5.011 2.89v41.27l-6.249-3.59c-7.487-4.37-12.616-4.96-15.269-1.89-2.476 3.18-3.773 9.61-3.773 19.34v46.16c0 12.03-1.179 21.52-3.537 28.54-2.358 6.95-7.015 11.43-14.031 13.44 7.016 10.08 11.673 19.93 14.031 29.6 2.358 9.66 3.478 20.51 3.478 32.54v46.16c0 9.73 1.238 17.63 3.773 23.7 2.653 6.19 7.782 11.44 15.269 15.75l6.249 3.59V1529l-5.011-2.89c-10.494-6.07-19.337-12.56-26.529-19.45-7.015-6.84-12.674-14.15-17.037-21.99-4.186-7.73-7.192-16.04-9.02-25-1.827-8.67-2.77-18.04-2.77-27.95v-52.41c0-9.73-1.651-18.57-5.011-26.47-3.361-7.96-8.784-14.09-16.271-18.4l.059-40.97Z" fill="url(#Background__aq)"/><path opacity=".4" d="M406.594 1462.97c-7.487-4.36-12.91-4.48-16.271-.35-3.36 4.06-5.011 10.96-5.011 20.69v52.41c0 9.97-.943 18.22-2.77 24.76-1.828 6.78-4.952 11.62-9.256 14.45-4.185 2.89-9.845 3.65-17.037 2.3-7.015-1.3-15.799-4.95-26.293-11.03l-5.011-2.89v-41.27l6.249 3.6c7.487 4.36 12.498 4.89 15.033 1.71 2.653-3.06 4.009-9.49 4.009-19.22v-46.16c0-12.03 1.179-21.52 3.537-28.54 2.358-7.01 7.015-11.44 14.031-13.44-7.016-10.08-11.673-19.93-14.031-29.6-2.358-9.67-3.478-20.51-3.478-32.54v-46.16c0-9.73-1.356-17.63-4.009-23.82-2.476-6.08-7.487-11.26-15.033-15.63l-6.249-3.59v-41.27l5.011 2.89c10.494 6.07 19.278 12.49 26.293 19.33 7.192 6.9 12.852 14.27 17.037 21.99 4.363 7.85 7.428 16.22 9.256 25.12 1.827 8.67 2.77 18.04 2.77 27.95v52.41c0 9.73 1.651 18.57 5.011 26.47 3.361 7.96 8.784 14.09 16.271 18.4l-.059 41.03Z" fill="url(#Background__ar)"/><path opacity=".4" d="M216.473 1311.16c7.487 4.36 12.911 4.48 16.271.35 3.36-4.07 5.011-10.97 5.011-20.7v-52.41c0-9.96.943-18.22 2.771-24.76 1.827-6.78 4.834-11.67 9.019-14.56 4.363-2.83 10.022-3.6 17.037-2.3 7.193 1.35 16.036 5.07 26.529 11.14l5.011 2.89v41.27l-6.249-3.6c-7.487-4.36-12.616-4.95-15.269-1.88-2.476 3.18-3.773 9.61-3.773 19.34v46.16c0 12.03-1.179 21.52-3.537 28.53-2.358 6.96-7.015 11.44-14.03 13.45 7.015 10.08 11.672 19.92 14.03 29.59 2.358 9.67 3.478 20.52 3.478 32.55v46.16c0 9.73 1.238 17.63 3.773 23.7 2.653 6.19 7.782 11.44 15.269 15.74l6.249 3.6v41.27l-5.011-2.89c-10.493-6.07-19.336-12.56-26.528-19.46-7.016-6.83-12.675-14.15-17.038-21.99-4.185-7.72-7.192-16.03-9.019-24.99-1.828-8.67-2.771-18.05-2.771-27.95V1397c0-9.73-1.651-18.57-5.011-26.48-3.36-7.95-8.784-14.09-16.271-18.39l.059-40.97Z" fill="url(#Background__as)"/><path opacity=".15" d="m85.599 1185.69 100.749 58.2-.059 241.31-100.75-58.19.06-241.32Z" fill="url(#Background__at)"/><path d="m66.675 1222.78 80.116 46.28v22.23l-80.116-46.28v-22.23Z" fill="#181818"/><path opacity=".15" d="m98.038 1319.23 76.992 44.46v34.54l-76.992-44.45v-34.55Zm-.059-41.8 77.11 44.51v8.02l-77.11-44.45v-8.08Zm0 15.68 66.675 38.5v8.02l-66.675-38.5v-8.02Z" fill="#fff"/><path opacity=".2" d="m85.599 1185.69 100.749 58.2v32.36l-100.75-58.19v-32.37Z" fill="url(#Background__au)"/><path opacity=".2" d="M110.772 1216.59c0 4.89-2.889 7.19-6.426 5.19-3.537-2.07-6.367-7.67-6.367-12.56 0-4.9 2.889-7.19 6.426-5.19 3.478 2.06 6.367 7.66 6.367 12.56Z" fill="#fff"/><path opacity=".15" d="m209.399 1409.44 100.749 58.19-.059 241.31-100.749-58.19.059-241.31Z" fill="url(#Background__av)"/><path d="m247.777 1479.65 80.116 46.23v22.16l-80.175-46.22.059-22.17Z" fill="#585858"/><path opacity=".15" d="m221.838 1502.59 77.05 44.51v34.49l-77.05-44.51v-34.49Zm-.118 49.29 77.109 44.51v8.02l-77.109-44.46v-8.07Zm0 14.5 66.675 38.5v8.02l-66.675-38.5v-8.02Z" fill="#fff"/><path opacity=".2" d="m209.399 1409.44 100.749 58.19v32.36l-100.749-58.19v-32.36Z" fill="url(#Background__aw)"/><path opacity=".2" d="M234.571 1440.39c0 4.89-2.888 7.19-6.425 5.19-3.538-2.07-6.367-7.67-6.367-12.56 0-4.89 2.888-7.19 6.425-5.19 3.479 2.01 6.367 7.67 6.367 12.56Z" fill="#fff"/><path opacity=".3" d="M191.949 1442.87 16.566 1341.64l.059 91.44 159.937 92.33 15.505 22.93-.118-105.47Z" fill="url(#Background__ax)"/><path opacity=".15" d="m146.85 1439.09-38.436-22.17v8.02l38.436 22.17v-8.02Zm0 16.1-95.149-54.95v8.02l95.208 54.95-.059-8.02Zm.059 16.09-114.898-66.32v8.01l114.898 66.33v-8.02Z" fill="#fff"/><path d="M156.342 1452.95c0 7.54 4.48 16.21 9.963 19.39 5.482 3.19 9.963-.35 9.963-7.9 0-7.54-4.481-16.21-9.963-19.39-5.542-3.19-9.963.35-9.963 7.9Z" fill="#585858"/><path opacity=".15" d="m33.898 1277.43-23.228-13.44v-7.84l23.228 13.44c1.886 1.12 4.657 3.3 7.015 6.72 2.535 3.66 4.362 8.26 4.362 13.27 0 5.54-1.414 8.66-4.067 9.61-2.535.82-5.483-.59-7.31-1.65l-9.55-5.55-.06-.05c-.825-.48-2.122-.95-3.124-.65-.825.23-1.828 1.12-1.828 4.18 0 3.07.944 4.95 1.769 6.08 1.002 1.41 2.3 2.41 3.124 2.83l.118.05 29.24 16.87v7.84l-29.063-16.81c-2.004-1.06-4.893-3.24-7.369-6.72-2.712-3.83-4.598-8.66-4.598-14.09 0-5.36 1.886-8.13 4.54-8.9 2.475-.71 5.364.35 7.368 1.53l9.492 5.49c1.355.76 2.417 1.12 3.065.88.53-.18 1.474-.94 1.474-4.89 0-2.6-.825-4.25-1.65-5.43-.944-1.29-2.182-2.36-2.948-2.77Z" fill="#fff"/><path d="M17.568 1264.81c0 6.73-3.95 9.85-8.784 7.08C3.95 1269.12 0 1261.4 0 1254.67c0-6.72 3.95-9.84 8.784-7.07 4.834 2.83 8.784 10.55 8.784 17.21Z" fill="#585858"/><path d="M64.14 1329.67c0 6.72-3.95 9.84-8.784 7.07-4.834-2.77-8.784-10.49-8.784-17.21 0-6.72 3.95-9.85 8.784-7.08 4.834 2.83 8.784 10.56 8.784 17.22Z" fill="#181818"/><path opacity=".2" d="M126.807 1534.66c3.537 2.07 6.366 6.96 6.366 11.09v17.98l11.909 6.84c3.537 2.06 6.367 6.95 6.367 11.08 0 4.07-2.889 5.72-6.367 3.71l-11.909-6.83v17.98c0 4.07-2.888 5.72-6.366 3.71-3.538-2.06-6.367-6.96-6.367-11.08v-17.98l-11.909-6.84c-3.537-2.07-6.366-6.96-6.366-11.09 0-4.06 2.888-5.72 6.366-3.71l11.909 6.84v-17.98c0-4.13 2.829-5.78 6.367-3.72Z" fill="url(#Background__ay)"/><path opacity=".3" d="M422.217 1676.72c0-4.25-3.007-9.44-6.662-11.56l-52.468-30.3v-43.93l-52.113-30.06c-3.714-2.13-6.662-.42-6.662 3.83 0 4.24 3.007 9.43 6.662 11.55l38.79 22.41v43.92l65.85 37.97c3.655 2.12 6.603.41 6.603-3.83Z" fill="url(#Background__az)"/><path d="M430.352 1681.79c0 11.67-6.838 17.21-15.269 12.32-8.43-4.84-15.268-18.28-15.268-29.95 0-11.68 6.838-17.22 15.268-12.32 8.431 4.83 15.269 18.27 15.269 29.95Z" fill="#585858"/><path opacity=".4" d="M245.014 798.827c-5.278-3.044-9.065-3.107-11.363-.249-2.359 2.858-3.477 7.704-3.477 14.476v36.654c0 6.959-.621 12.736-1.925 17.334-1.304 4.783-3.477 8.138-6.457 10.126-2.918 2.05-6.892 2.547-11.922 1.616-4.905-.87-11.052-3.48-18.379-7.704l-3.477-2.05v-28.889l4.408 2.547c5.278 3.044 8.755 3.417 10.494 1.243 1.863-2.175 2.794-6.648 2.794-13.42v-32.306c0-8.449.807-15.096 2.484-19.942 1.614-4.908 4.905-8.014 9.81-9.381-4.905-7.021-8.196-13.979-9.81-20.75-1.615-6.772-2.422-14.352-2.422-22.801v-32.306c0-6.771-.931-12.363-2.794-16.65-1.739-4.224-5.278-7.89-10.493-10.934l-4.409-2.547v-28.889l3.477 2.05c7.327 4.225 13.474 8.76 18.379 13.544 5.03 4.846 9.004 9.94 11.922 15.407a59.754 59.754 0 0 1 6.457 17.582c1.304 6.088 1.925 12.612 1.925 19.57v36.655c0 6.771 1.18 12.984 3.477 18.513 2.36 5.53 6.148 9.878 11.363 12.86l-.062 28.641Z" fill="url(#Background__aA)"/><path opacity=".4" d="M112.013 692.652c5.278 3.045 9.066 3.107 11.363.249 2.36-2.858 3.477-7.704 3.477-14.475v-36.655c0-6.958.621-12.736 1.925-17.333 1.304-4.784 3.415-8.139 6.333-10.189 3.043-1.988 7.017-2.485 11.922-1.615 5.03.931 11.239 3.541 18.566 7.827l3.477 2.051V651.4l-4.409-2.547c-5.278-3.044-8.817-3.479-10.68-1.304-1.738 2.236-2.607 6.709-2.607 13.543v32.306c0 8.387-.808 15.097-2.484 19.943-1.615 4.908-4.905 8.014-9.811 9.381 4.906 7.02 8.196 13.978 9.811 20.75 1.614 6.772 2.421 14.351 2.421 22.8v32.306c0 6.772.87 12.301 2.608 16.588 1.863 4.287 5.402 8.014 10.68 10.996l4.409 2.548v28.888l-3.478-2.05c-7.326-4.224-13.536-8.822-18.565-13.606-4.905-4.783-8.879-9.878-11.922-15.407-2.918-5.405-5.029-11.245-6.271-17.457-1.304-6.089-1.925-12.612-1.925-19.57v-36.655c0-6.772-1.18-12.984-3.477-18.514-2.359-5.529-6.147-9.878-11.363-12.86v-28.827Z" fill="url(#Background__aB)"/><path opacity=".15" d="m262.958 620.213 131.076 75.732-.062 314.425-131.076-75.673.062-314.484Z" fill="url(#Background__aC)"/><path d="m238.308 661.403 104.315 60.2v28.889l-104.315-60.2v-28.889Z" fill="#181818"/><path opacity=".2" d="m280.034 795.161 98.85 57.095v87.411l-98.85-57.094v-87.412Z" fill="url(#Background__aD)"/><path opacity=".15" d="m279.04 728.127 100.34 57.964v9.878l-100.34-57.964v-9.878Zm0 19.88 86.742 50.074v9.878l-86.742-50.074v-9.878Zm0 19.632 73.641 42.495v9.878l-73.641-42.495v-9.878Z" fill="#fff"/><path opacity=".2" d="m262.958 620.213 131.076 75.732v42.122l-131.138-75.67.062-42.184Z" fill="url(#Background__aE)"/><path opacity=".2" d="M295.681 660.471c0 6.399-3.726 9.381-8.32 6.71-4.595-2.672-8.321-9.941-8.321-16.34 0-6.399 3.726-9.381 8.321-6.709 4.594 2.671 8.32 10.002 8.32 16.339Z" fill="#fff"/><path opacity=".15" d="m26.762 716.509 403.472 232.974-.062 314.607-403.473-232.97.063-314.611Z" fill="url(#Background__aF)"/><path d="m0 794.043 104.252 60.2v28.889L0 822.994v-28.951Z" fill="#585858"/><path opacity=".15" d="m53.957 873.441 231.479 133.699v9.87L53.957 883.319v-9.878Zm0 19.88 199.688 115.309v9.88L53.957 903.199v-9.878Zm0 19.694 169.946 98.165v9.87L53.957 922.893v-9.878Z" fill="#fff"/><path opacity=".2" d="m210.181 1038.26 203.537 117.55v87.41l-203.537-117.55v-87.41Z" fill="url(#Background__aG)"/><path opacity=".15" d="m225.518 1064.42 30.673 17.7v28.89l-30.673-17.7v-28.89Zm37.565 23.11 30.673 17.7v28.89l-30.673-17.7v-28.89Zm37.752 21.43 30.673 17.71v28.89l-30.673-17.71v-28.89Zm37.752 22.8 30.673 17.71v28.89l-30.673-17.71v-28.89Z" fill="#fff"/><path opacity=".2" d="m16.081 922.831 169.449 97.849v87.41l-169.449-97.91v-87.349Z" fill="url(#Background__aH)"/><path opacity=".15" d="m33.157 955.075 134.615 77.725v9.87L33.157 964.953v-9.878Zm0 19.88 107.791 62.255v9.87L33.157 984.771v-9.816Z" fill="#fff"/><path opacity=".2" d="m26.761 716.509 402.914 232.726v42.619L26.761 759.19v-42.681Z" fill="url(#Background__aI)"/><path opacity=".2" d="M70.66 763.166c0 6.399-3.725 9.381-8.32 6.71-4.595-2.672-8.32-9.94-8.32-16.339 0-6.399 3.725-9.381 8.32-6.71 4.595 2.671 8.32 10.002 8.32 16.339Z" fill="#fff"/><path opacity=".07" d="M97.74 559.789c-68.813-39.723-124.996 7.333-124.996 106.092l-17.56-10.145c.04-111.551 63.639-165.819 142.556-120.27v24.323Z" fill="url(#Background__aJ)"/><path opacity=".07" d="M40.375 704.993c0-43.838 25.668-64.576 57.324-46.324v-24.323c-41.353-23.874-74.884 3.219-74.884 60.502l17.56 10.145Z" fill="url(#Background__aK)"/><path opacity=".07" d="M6.152 684.785c0-69.995 40.986-103.077 91.466-73.906v-24.323c-60.176-34.752-109.026 4.686-109.026 88.084l17.56 10.145Z" fill="url(#Background__aL)"/><path opacity=".24" d="M104.313 1088.37c-68.813-39.72-124.996 7.34-124.996 106.1l-17.56-10.15c.04-111.55 63.639-165.82 142.556-120.27v24.32Z" fill="url(#Background__aM)"/><path opacity=".24" d="M46.948 1233.58c0-43.84 25.667-64.58 57.324-46.33v-24.32c-41.353-23.87-74.884 3.22-74.884 60.5l17.56 10.15Z" fill="url(#Background__aN)"/><path opacity=".24" d="M12.725 1213.37c0-69.99 40.986-103.08 91.466-73.91v-24.32c-60.176-34.75-109.026 4.69-109.026 88.09l17.56 10.14Z" fill="url(#Background__aO)"/><path opacity=".07" d="M430.175 407.642c-7.487-4.363-12.91-4.481-16.271-.354-3.36 4.068-5.011 10.966-5.011 20.694v52.413c0 9.964-.943 18.218-2.77 24.762-1.828 6.78-4.952 11.614-9.256 14.444-4.185 2.889-9.845 3.656-17.037 2.3-7.015-1.297-15.799-4.953-26.293-11.025l-5.011-2.889v-41.27l6.249 3.596c7.487 4.363 12.498 4.894 15.033 1.71 2.653-3.066 4.009-9.492 4.009-19.22v-46.164c0-12.027 1.179-21.519 3.537-28.535 2.358-7.016 7.015-11.437 14.031-13.442-7.016-10.082-11.673-19.928-14.031-29.596-2.358-9.669-3.478-20.518-3.478-32.545v-46.163c0-9.728-1.356-17.628-4.009-23.819-2.476-6.073-7.487-11.261-15.033-15.624l-6.249-3.596v-41.27l5.011 2.889c10.494 6.073 19.278 12.499 26.293 19.338 7.192 6.898 12.851 14.268 17.037 21.991 4.363 7.841 7.428 16.213 9.256 25.116 1.827 8.666 2.77 18.041 2.77 27.945v52.413c0 9.728 1.651 18.572 5.011 26.472 3.361 7.959 8.784 14.091 16.271 18.395l-.059 41.034Z" fill="url(#Background__aP)"/><path opacity=".07" d="M240.054 255.827c7.487 4.363 12.91 4.481 16.271.354 3.36-4.068 5.011-10.966 5.011-20.694v-52.413c0-9.964.943-18.218 2.77-24.762 1.828-6.78 4.834-11.673 9.02-14.562 4.363-2.83 10.022-3.597 17.037-2.3 7.192 1.356 16.035 5.071 26.529 11.143l5.011 2.889v41.27l-6.249-3.596c-7.487-4.363-12.616-4.953-15.269-1.887-2.476 3.184-3.773 9.61-3.773 19.338v46.163c0 12.028-1.179 21.52-3.537 28.536-2.358 6.957-7.015 11.437-14.031 13.442 7.016 10.082 11.673 19.927 14.031 29.596 2.358 9.669 3.478 20.517 3.478 32.545v46.163c0 9.728 1.238 17.628 3.773 23.701 2.653 6.19 7.782 11.438 15.269 15.741l6.249 3.597v41.27l-5.011-2.889c-10.494-6.073-19.337-12.558-26.529-19.456-7.015-6.839-12.674-14.15-17.037-21.991-4.186-7.723-7.192-16.036-9.02-24.998-1.827-8.666-2.77-18.041-2.77-27.945v-52.413c0-9.728-1.651-18.572-5.011-26.472-3.361-7.959-8.784-14.091-16.271-18.395l.059-40.975Z" fill="url(#Background__aQ)"/><path opacity=".4" d="M406.594 425.329c-7.487-4.363-12.91-4.481-16.271-.354-3.36 4.068-5.011 10.966-5.011 20.694v52.413c0 9.964-.943 18.218-2.77 24.762-1.828 6.78-4.952 11.614-9.256 14.444-4.185 2.889-9.845 3.656-17.037 2.3-7.015-1.297-15.799-4.953-26.293-11.025l-5.011-2.889v-41.27l6.249 3.596c7.487 4.363 12.498 4.894 15.033 1.71 2.653-3.066 4.009-9.492 4.009-19.22v-46.163c0-12.028 1.179-21.52 3.537-28.536 2.358-7.016 7.015-11.437 14.031-13.442-7.016-10.082-11.673-19.927-14.031-29.596-2.358-9.669-3.478-20.517-3.478-32.545v-46.163c0-9.728-1.356-17.628-4.009-23.819-2.476-6.072-7.487-11.261-15.033-15.623l-6.249-3.597v-41.27l5.011 2.889c10.494 6.073 19.278 12.499 26.293 19.338 7.192 6.898 12.852 14.268 17.037 21.991 4.363 7.841 7.428 16.213 9.256 25.116 1.827 8.666 2.77 18.041 2.77 27.945v52.413c0 9.728 1.651 18.572 5.011 26.472 3.361 7.959 8.784 14.091 16.271 18.395l-.059 41.034Z" fill="url(#Background__aR)"/><path opacity=".4" d="M216.473 273.514c7.487 4.363 12.911 4.481 16.271.354 3.36-4.068 5.011-10.966 5.011-20.694v-52.413c0-9.964.943-18.218 2.771-24.762 1.827-6.78 4.834-11.673 9.019-14.562 4.363-2.83 10.022-3.597 17.037-2.3 7.193 1.356 16.036 5.071 26.529 11.143l5.011 2.889v41.27l-6.249-3.596c-7.487-4.363-12.616-4.953-15.269-1.887-2.476 3.184-3.773 9.61-3.773 19.338v46.164c0 12.027-1.179 21.519-3.537 28.535-2.358 6.957-7.015 11.437-14.03 13.442 7.015 10.082 11.672 19.928 14.03 29.597 2.358 9.668 3.478 20.517 3.478 32.544v46.163c0 9.728 1.238 17.628 3.773 23.701 2.653 6.191 7.782 11.438 15.269 15.742l6.249 3.596v41.27l-5.011-2.889c-10.493-6.073-19.336-12.558-26.528-19.456-7.016-6.839-12.675-14.15-17.038-21.991-4.185-7.723-7.192-16.036-9.019-24.998-1.828-8.666-2.771-18.041-2.771-27.945v-52.413c0-9.728-1.651-18.572-5.011-26.472-3.36-7.959-8.784-14.091-16.271-18.395l.059-40.975Z" fill="url(#Background__aS)"/><path opacity=".15" d="m85.599 148.054 100.749 58.19-.059 241.312-100.75-58.191.06-241.311Z" fill="url(#Background__aT)"/><path d="m66.675 185.138 80.116 46.281v22.227l-80.116-46.282v-22.226Z" fill="#181818"/><path opacity=".15" d="m98.038 281.591 76.992 44.454v34.549L98.038 316.14v-34.549Zm-.059-41.8 77.11 44.512v8.019l-77.11-44.454v-8.077Zm0 15.682 66.675 38.499v8.019l-66.675-38.499v-8.019Z" fill="#fff"/><path opacity=".2" d="m85.599 148.054 100.749 58.19v32.368l-100.75-58.191v-32.367Z" fill="url(#Background__aU)"/><path opacity=".2" d="M110.772 178.947c0 4.894-2.889 7.193-6.426 5.188-3.537-2.063-6.367-7.664-6.367-12.558 0-4.893 2.889-7.192 6.426-5.188 3.478 2.064 6.367 7.665 6.367 12.558Z" fill="#fff"/><path opacity=".15" d="m209.399 371.796 100.749 58.19-.059 241.312-100.749-58.191.059-241.311Z" fill="url(#Background__aV)"/><path d="m247.777 442.014 80.116 46.222v22.168l-80.175-46.222.059-22.168Z" fill="#585858"/><path opacity=".15" d="m221.838 464.948 77.05 44.513v34.49l-77.05-44.513v-34.49Zm-.118 49.288 77.109 44.513v8.018l-77.109-44.454v-8.077Zm0 14.504 66.675 38.499v8.018l-66.675-38.499v-8.018Z" fill="#fff"/><path opacity=".2" d="m209.399 371.796 100.749 58.19v32.368l-100.749-58.191v-32.367Z" fill="url(#Background__aW)"/><path opacity=".2" d="M234.571 402.748c0 4.894-2.888 7.193-6.425 5.188-3.538-2.063-6.367-7.664-6.367-12.557 0-4.894 2.888-7.193 6.425-5.189 3.479 2.005 6.367 7.665 6.367 12.558Z" fill="#fff"/><path opacity=".3" d="M191.949 405.224 16.566 303.995l.059 91.443 159.937 92.326 15.505 22.935-.118-105.475Z" fill="url(#Background__aX)"/><path opacity=".15" d="m146.85 401.451-38.436-22.168v8.019l38.436 22.167v-8.018Zm0 16.095-95.149-54.948v8.019l95.208 54.948-.059-8.019Zm.059 16.096L32.011 367.315v8.018L146.91 441.66v-8.018Z" fill="#fff"/><path d="M156.342 415.306c0 7.547 4.48 16.213 9.963 19.397 5.482 3.184 9.963-.354 9.963-7.9 0-7.547-4.481-16.213-9.963-19.397-5.542-3.184-9.963.354-9.963 7.9Z" fill="#585858"/><path opacity=".15" d="M33.898 239.791 10.67 226.349v-7.842l23.228 13.443c1.886 1.12 4.657 3.301 7.015 6.721 2.535 3.655 4.362 8.254 4.362 13.265 0 5.542-1.414 8.667-4.067 9.61-2.535.825-5.483-.59-7.31-1.651l-9.55-5.542-.06-.059c-.825-.471-2.122-.943-3.124-.648-.825.236-1.828 1.12-1.828 4.186 0 3.065.944 4.952 1.769 6.072 1.002 1.415 2.3 2.418 3.124 2.83l.118.059 29.24 16.862v7.841l-29.063-16.803c-2.004-1.061-4.893-3.242-7.369-6.721-2.712-3.832-4.598-8.666-4.598-14.09 0-5.366 1.886-8.137 4.54-8.903 2.475-.707 5.364.354 7.368 1.533l9.492 5.483c1.355.766 2.417 1.12 3.065.884.53-.177 1.474-.943 1.474-4.893 0-2.594-.825-4.245-1.65-5.424-.944-1.297-2.182-2.358-2.948-2.771Z" fill="#fff"/><path d="M17.568 227.174c0 6.721-3.95 9.846-8.784 7.075C3.95 231.478 0 223.754 0 217.033c0-6.721 3.95-9.845 8.784-7.075 4.834 2.83 8.784 10.554 8.784 17.216Z" fill="#585858"/><path d="M64.14 292.027c0 6.721-3.95 9.846-8.784 7.075-4.834-2.771-8.784-10.495-8.784-17.216 0-6.721 3.95-9.846 8.784-7.075 4.834 2.83 8.784 10.554 8.784 17.216Z" fill="#181818"/><path opacity=".2" d="M126.807 497.021c3.537 2.063 6.366 6.957 6.366 11.084v17.982l11.909 6.839c3.537 2.063 6.367 6.957 6.367 11.084 0 4.068-2.889 5.718-6.367 3.714l-11.909-6.839v17.982c0 4.068-2.888 5.719-6.366 3.714-3.538-2.063-6.367-6.957-6.367-11.084v-17.982l-11.909-6.839c-3.537-2.063-6.366-6.957-6.366-11.084 0-4.068 2.888-5.719 6.366-3.714l11.909 6.839v-17.982c0-4.127 2.829-5.778 6.367-3.714Z" fill="url(#Background__aY)"/><path opacity=".3" d="M422.217 639.075c0-4.245-3.007-9.433-6.662-11.555l-52.468-30.304v-43.923l-52.113-30.068c-3.714-2.123-6.662-.413-6.662 3.832s3.007 9.433 6.662 11.555l38.79 22.404v43.923l65.85 37.969c3.655 2.122 6.603.412 6.603-3.833Z" fill="url(#Background__aZ)"/><path d="M430.352 644.145c0 11.674-6.838 17.216-15.269 12.323-8.43-4.835-15.268-18.277-15.268-29.951 0-11.673 6.838-17.215 15.268-12.322 8.431 4.835 15.269 18.277 15.269 29.95Z" fill="#585858"/><path fill="#000" fill-opacity=".7" d="M0 0h430.234v6965.74H0z"/><defs><linearGradient id="Background__a" x1="280.755" y1="3704.06" x2="178.975" y2="3880.41" gradientUnits="userSpaceOnUse"><stop stop-color="#fff"/><stop offset=".903" stop-color="#fff" stop-opacity="0"/></linearGradient><linearGradient id="Background__b" x1="222.044" y1="3692.11" x2="120.252" y2="3868.43" gradientUnits="userSpaceOnUse"><stop stop-color="#fff"/><stop offset=".903" stop-color="#fff" stop-opacity="0"/></linearGradient><linearGradient id="Background__c" x1="396.499" y1="3776.15" x2="271.059" y2="3993.36" gradientUnits="userSpaceOnUse"><stop stop-color="#fff"/><stop offset="1" stop-color="#fff" stop-opacity="0"/></linearGradient><linearGradient id="Background__d" x1="348.387" y1="3913.37" x2="313.523" y2="3973.74" gradientUnits="userSpaceOnUse"><stop stop-color="#fff"/><stop offset="1" stop-color="#fff" stop-opacity="0"/></linearGradient><linearGradient id="Background__e" x1="307.9" y1="3699.64" x2="347.905" y2="3812.84" gradientUnits="userSpaceOnUse"><stop stop-color="#fff"/><stop offset="1" stop-color="#fff" stop-opacity="0"/></linearGradient><linearGradient id="Background__f" x1="296.54" y1="3951.06" x2="230.097" y2="4066.14" gradientUnits="userSpaceOnUse"><stop stop-color="#fff"/><stop offset="1" stop-color="#fff" stop-opacity="0"/></linearGradient><linearGradient id="Background__g" x1="330.884" y1="4186.73" x2="296.02" y2="4247.1" gradientUnits="userSpaceOnUse"><stop stop-color="#fff"/><stop offset="1" stop-color="#fff" stop-opacity="0"/></linearGradient><linearGradient id="Background__h" x1="119.711" y1="4061.43" x2="84.847" y2="4121.79" gradientUnits="userSpaceOnUse"><stop stop-color="#fff"/><stop offset="1" stop-color="#fff" stop-opacity="0"/></linearGradient><linearGradient id="Background__i" x1="126.733" y1="3760.95" x2="279.85" y2="4020.17" gradientUnits="userSpaceOnUse"><stop stop-color="#fff"/><stop offset="1" stop-color="#fff" stop-opacity="0"/></linearGradient><linearGradient id="Background__j" x1="73.513" y1="3595.63" x2="-27.792" y2="3713.83" gradientUnits="userSpaceOnUse"><stop stop-color="#fff"/><stop offset="1" stop-color="#fff" stop-opacity="0"/></linearGradient><linearGradient id="Background__k" x1="135.914" y1="3649.15" x2="34.609" y2="3767.36" gradientUnits="userSpaceOnUse"><stop stop-color="#fff"/><stop offset="1" stop-color="#fff" stop-opacity="0"/></linearGradient><linearGradient id="Background__l" x1="105.362" y1="3622.57" x2="4.056" y2="3740.77" gradientUnits="userSpaceOnUse"><stop stop-color="#fff"/><stop offset="1" stop-color="#fff" stop-opacity="0"/></linearGradient><linearGradient id="Background__m" x1="80.086" y1="4124.21" x2="-21.219" y2="4242.42" gradientUnits="userSpaceOnUse"><stop stop-color="#fff"/><stop offset="1" stop-color="#fff" stop-opacity="0"/></linearGradient><linearGradient id="Background__n" x1="142.487" y1="4177.74" x2="41.182" y2="4295.94" gradientUnits="userSpaceOnUse"><stop stop-color="#fff"/><stop offset="1" stop-color="#fff" stop-opacity="0"/></linearGradient><linearGradient id="Background__o" x1="111.935" y1="4151.15" x2="10.63" y2="4269.36" gradientUnits="userSpaceOnUse"><stop stop-color="#fff"/><stop offset="1" stop-color="#fff" stop-opacity="0"/></linearGradient><linearGradient id="Background__p" x1="467.264" y1="3276.13" x2="321.852" y2="3528.13" gradientUnits="userSpaceOnUse"><stop stop-color="#fff"/><stop offset="1" stop-color="#fff" stop-opacity="0"/></linearGradient><linearGradient id="Background__q" x1="397.354" y1="3234.7" x2="251.942" y2="3486.7" gradientUnits="userSpaceOnUse"><stop stop-color="#fff"/><stop offset="1" stop-color="#fff" stop-opacity="0"/></linearGradient><linearGradient id="Background__r" x1="443.683" y1="3293.82" x2="298.271" y2="3545.82" gradientUnits="userSpaceOnUse"><stop stop-color="#fff"/><stop offset="1" stop-color="#fff" stop-opacity="0"/></linearGradient><linearGradient id="Background__s" x1="373.773" y1="3252.39" x2="228.361" y2="3504.39" gradientUnits="userSpaceOnUse"><stop stop-color="#fff"/><stop offset="1" stop-color="#fff" stop-opacity="0"/></linearGradient><linearGradient id="Background__t" x1="188.176" y1="3299.44" x2="91.914" y2="3466.2" gradientUnits="userSpaceOnUse"><stop stop-color="#fff"/><stop offset="1" stop-color="#fff" stop-opacity="0"/></linearGradient><linearGradient id="Background__u" x1="120.166" y1="3240.71" x2="150.834" y2="3327.65" gradientUnits="userSpaceOnUse"><stop stop-color="#fff"/><stop offset="1" stop-color="#fff" stop-opacity="0"/></linearGradient><linearGradient id="Background__v" x1="311.972" y1="3523.2" x2="215.71" y2="3689.96" gradientUnits="userSpaceOnUse"><stop stop-color="#fff"/><stop offset="1" stop-color="#fff" stop-opacity="0"/></linearGradient><linearGradient id="Background__w" x1="243.962" y1="3464.46" x2="274.629" y2="3551.41" gradientUnits="userSpaceOnUse"><stop stop-color="#fff"/><stop offset="1" stop-color="#fff" stop-opacity="0"/></linearGradient><linearGradient id="Background__x" x1="153.708" y1="3460.79" x2="63.121" y2="3531.71" gradientUnits="userSpaceOnUse"><stop stop-color="#fff"/><stop offset="1" stop-color="#fff" stop-opacity="0"/></linearGradient><linearGradient id="Background__y" x1="139.104" y1="3612.15" x2="108.227" y2="3636.5" gradientUnits="userSpaceOnUse"><stop stop-color="#fff"/><stop offset="1" stop-color="#fff" stop-opacity="0"/></linearGradient><linearGradient id="Background__z" x1="444.208" y1="3675.24" x2="310.969" y2="3675.22" gradientUnits="userSpaceOnUse"><stop stop-color="#fff"/><stop offset="1" stop-color="#fff" stop-opacity="0"/></linearGradient><linearGradient id="Background__A" x1="280.755" y1="2664.06" x2="178.975" y2="2840.41" gradientUnits="userSpaceOnUse"><stop stop-color="#fff"/><stop offset=".903" stop-color="#fff" stop-opacity="0"/></linearGradient><linearGradient id="Background__B" x1="222.044" y1="2652.11" x2="120.252" y2="2828.43" gradientUnits="userSpaceOnUse"><stop stop-color="#fff"/><stop offset=".903" stop-color="#fff" stop-opacity="0"/></linearGradient><linearGradient id="Background__C" x1="396.499" y1="2736.15" x2="271.059" y2="2953.36" gradientUnits="userSpaceOnUse"><stop stop-color="#fff"/><stop offset="1" stop-color="#fff" stop-opacity="0"/></linearGradient><linearGradient id="Background__D" x1="348.387" y1="2873.37" x2="313.523" y2="2933.74" gradientUnits="userSpaceOnUse"><stop stop-color="#fff"/><stop offset="1" stop-color="#fff" stop-opacity="0"/></linearGradient><linearGradient id="Background__E" x1="307.9" y1="2659.64" x2="347.905" y2="2772.84" gradientUnits="userSpaceOnUse"><stop stop-color="#fff"/><stop offset="1" stop-color="#fff" stop-opacity="0"/></linearGradient><linearGradient id="Background__F" x1="296.54" y1="2911.06" x2="230.097" y2="3026.14" gradientUnits="userSpaceOnUse"><stop stop-color="#fff"/><stop offset="1" stop-color="#fff" stop-opacity="0"/></linearGradient><linearGradient id="Background__G" x1="330.884" y1="3146.73" x2="296.02" y2="3207.1" gradientUnits="userSpaceOnUse"><stop stop-color="#fff"/><stop offset="1" stop-color="#fff" stop-opacity="0"/></linearGradient><linearGradient id="Background__H" x1="119.711" y1="3021.43" x2="84.847" y2="3081.79" gradientUnits="userSpaceOnUse"><stop stop-color="#fff"/><stop offset="1" stop-color="#fff" stop-opacity="0"/></linearGradient><linearGradient id="Background__I" x1="126.733" y1="2720.95" x2="279.85" y2="2980.17" gradientUnits="userSpaceOnUse"><stop stop-color="#fff"/><stop offset="1" stop-color="#fff" stop-opacity="0"/></linearGradient><linearGradient id="Background__J" x1="73.513" y1="2555.63" x2="-27.792" y2="2673.83" gradientUnits="userSpaceOnUse"><stop stop-color="#fff"/><stop offset="1" stop-color="#fff" stop-opacity="0"/></linearGradient><linearGradient id="Background__K" x1="135.914" y1="2609.15" x2="34.609" y2="2727.36" gradientUnits="userSpaceOnUse"><stop stop-color="#fff"/><stop offset="1" stop-color="#fff" stop-opacity="0"/></linearGradient><linearGradient id="Background__L" x1="105.362" y1="2582.57" x2="4.056" y2="2700.77" gradientUnits="userSpaceOnUse"><stop stop-color="#fff"/><stop offset="1" stop-color="#fff" stop-opacity="0"/></linearGradient><linearGradient id="Background__M" x1="80.086" y1="3084.21" x2="-21.219" y2="3202.42" gradientUnits="userSpaceOnUse"><stop stop-color="#fff"/><stop offset="1" stop-color="#fff" stop-opacity="0"/></linearGradient><linearGradient id="Background__N" x1="142.487" y1="3137.74" x2="41.182" y2="3255.94" gradientUnits="userSpaceOnUse"><stop stop-color="#fff"/><stop offset="1" stop-color="#fff" stop-opacity="0"/></linearGradient><linearGradient id="Background__O" x1="111.935" y1="3111.15" x2="10.63" y2="3229.36" gradientUnits="userSpaceOnUse"><stop stop-color="#fff"/><stop offset="1" stop-color="#fff" stop-opacity="0"/></linearGradient><linearGradient id="Background__P" x1="467.264" y1="2236.13" x2="321.852" y2="2488.13" gradientUnits="userSpaceOnUse"><stop stop-color="#fff"/><stop offset="1" stop-color="#fff" stop-opacity="0"/></linearGradient><linearGradient id="Background__Q" x1="397.354" y1="2194.7" x2="251.942" y2="2446.7" gradientUnits="userSpaceOnUse"><stop stop-color="#fff"/><stop offset="1" stop-color="#fff" stop-opacity="0"/></linearGradient><linearGradient id="Background__R" x1="443.683" y1="2253.82" x2="298.271" y2="2505.82" gradientUnits="userSpaceOnUse"><stop stop-color="#fff"/><stop offset="1" stop-color="#fff" stop-opacity="0"/></linearGradient><linearGradient id="Background__S" x1="373.773" y1="2212.39" x2="228.361" y2="2464.39" gradientUnits="userSpaceOnUse"><stop stop-color="#fff"/><stop offset="1" stop-color="#fff" stop-opacity="0"/></linearGradient><linearGradient id="Background__T" x1="188.176" y1="2259.44" x2="91.914" y2="2426.2" gradientUnits="userSpaceOnUse"><stop stop-color="#fff"/><stop offset="1" stop-color="#fff" stop-opacity="0"/></linearGradient><linearGradient id="Background__U" x1="120.166" y1="2200.71" x2="150.834" y2="2287.65" gradientUnits="userSpaceOnUse"><stop stop-color="#fff"/><stop offset="1" stop-color="#fff" stop-opacity="0"/></linearGradient><linearGradient id="Background__V" x1="311.972" y1="2483.2" x2="215.71" y2="2649.96" gradientUnits="userSpaceOnUse"><stop stop-color="#fff"/><stop offset="1" stop-color="#fff" stop-opacity="0"/></linearGradient><linearGradient id="Background__W" x1="243.962" y1="2424.46" x2="274.629" y2="2511.41" gradientUnits="userSpaceOnUse"><stop stop-color="#fff"/><stop offset="1" stop-color="#fff" stop-opacity="0"/></linearGradient><linearGradient id="Background__X" x1="153.708" y1="2420.79" x2="63.121" y2="2491.71" gradientUnits="userSpaceOnUse"><stop stop-color="#fff"/><stop offset="1" stop-color="#fff" stop-opacity="0"/></linearGradient><linearGradient id="Background__Y" x1="139.104" y1="2572.15" x2="108.227" y2="2596.5" gradientUnits="userSpaceOnUse"><stop stop-color="#fff"/><stop offset="1" stop-color="#fff" stop-opacity="0"/></linearGradient><linearGradient id="Background__Z" x1="444.208" y1="2635.24" x2="310.969" y2="2635.22" gradientUnits="userSpaceOnUse"><stop stop-color="#fff"/><stop offset="1" stop-color="#fff" stop-opacity="0"/></linearGradient><linearGradient id="Background__aa" x1="280.755" y1="1640.06" x2="178.975" y2="1816.41" gradientUnits="userSpaceOnUse"><stop stop-color="#fff"/><stop offset=".903" stop-color="#fff" stop-opacity="0"/></linearGradient><linearGradient id="Background__ab" x1="222.044" y1="1628.11" x2="120.252" y2="1804.43" gradientUnits="userSpaceOnUse"><stop stop-color="#fff"/><stop offset=".903" stop-color="#fff" stop-opacity="0"/></linearGradient><linearGradient id="Background__ac" x1="396.499" y1="1712.15" x2="271.059" y2="1929.36" gradientUnits="userSpaceOnUse"><stop stop-color="#fff"/><stop offset="1" stop-color="#fff" stop-opacity="0"/></linearGradient><linearGradient id="Background__ad" x1="348.387" y1="1849.37" x2="313.523" y2="1909.74" gradientUnits="userSpaceOnUse"><stop stop-color="#fff"/><stop offset="1" stop-color="#fff" stop-opacity="0"/></linearGradient><linearGradient id="Background__ae" x1="307.9" y1="1635.64" x2="347.905" y2="1748.84" gradientUnits="userSpaceOnUse"><stop stop-color="#fff"/><stop offset="1" stop-color="#fff" stop-opacity="0"/></linearGradient><linearGradient id="Background__af" x1="296.54" y1="1887.06" x2="230.097" y2="2002.14" gradientUnits="userSpaceOnUse"><stop stop-color="#fff"/><stop offset="1" stop-color="#fff" stop-opacity="0"/></linearGradient><linearGradient id="Background__ag" x1="330.884" y1="2122.73" x2="296.02" y2="2183.1" gradientUnits="userSpaceOnUse"><stop stop-color="#fff"/><stop offset="1" stop-color="#fff" stop-opacity="0"/></linearGradient><linearGradient id="Background__ah" x1="119.711" y1="1997.43" x2="84.847" y2="2057.8" gradientUnits="userSpaceOnUse"><stop stop-color="#fff"/><stop offset="1" stop-color="#fff" stop-opacity="0"/></linearGradient><linearGradient id="Background__ai" x1="126.733" y1="1696.95" x2="279.85" y2="1956.17" gradientUnits="userSpaceOnUse"><stop stop-color="#fff"/><stop offset="1" stop-color="#fff" stop-opacity="0"/></linearGradient><linearGradient id="Background__aj" x1="73.513" y1="1531.63" x2="-27.792" y2="1649.83" gradientUnits="userSpaceOnUse"><stop stop-color="#fff"/><stop offset="1" stop-color="#fff" stop-opacity="0"/></linearGradient><linearGradient id="Background__ak" x1="135.914" y1="1585.15" x2="34.609" y2="1703.36" gradientUnits="userSpaceOnUse"><stop stop-color="#fff"/><stop offset="1" stop-color="#fff" stop-opacity="0"/></linearGradient><linearGradient id="Background__al" x1="105.362" y1="1558.57" x2="4.056" y2="1676.77" gradientUnits="userSpaceOnUse"><stop stop-color="#fff"/><stop offset="1" stop-color="#fff" stop-opacity="0"/></linearGradient><linearGradient id="Background__am" x1="80.086" y1="2060.21" x2="-21.219" y2="2178.42" gradientUnits="userSpaceOnUse"><stop stop-color="#fff"/><stop offset="1" stop-color="#fff" stop-opacity="0"/></linearGradient><linearGradient id="Background__an" x1="142.487" y1="2113.74" x2="41.182" y2="2231.94" gradientUnits="userSpaceOnUse"><stop stop-color="#fff"/><stop offset="1" stop-color="#fff" stop-opacity="0"/></linearGradient><linearGradient id="Background__ao" x1="111.935" y1="2087.15" x2="10.63" y2="2205.36" gradientUnits="userSpaceOnUse"><stop stop-color="#fff"/><stop offset="1" stop-color="#fff" stop-opacity="0"/></linearGradient><linearGradient id="Background__ap" x1="467.264" y1="1221.61" x2="321.852" y2="1473.61" gradientUnits="userSpaceOnUse"><stop stop-color="#fff"/><stop offset="1" stop-color="#fff" stop-opacity="0"/></linearGradient><linearGradient id="Background__aq" x1="397.354" y1="1180.18" x2="251.942" y2="1432.18" gradientUnits="userSpaceOnUse"><stop stop-color="#fff"/><stop offset="1" stop-color="#fff" stop-opacity="0"/></linearGradient><linearGradient id="Background__ar" x1="443.683" y1="1239.3" x2="298.271" y2="1491.3" gradientUnits="userSpaceOnUse"><stop stop-color="#fff"/><stop offset="1" stop-color="#fff" stop-opacity="0"/></linearGradient><linearGradient id="Background__as" x1="373.773" y1="1197.87" x2="228.361" y2="1449.87" gradientUnits="userSpaceOnUse"><stop stop-color="#fff"/><stop offset="1" stop-color="#fff" stop-opacity="0"/></linearGradient><linearGradient id="Background__at" x1="188.176" y1="1244.92" x2="91.914" y2="1411.68" gradientUnits="userSpaceOnUse"><stop stop-color="#fff"/><stop offset="1" stop-color="#fff" stop-opacity="0"/></linearGradient><linearGradient id="Background__au" x1="120.166" y1="1186.19" x2="150.834" y2="1273.13" gradientUnits="userSpaceOnUse"><stop stop-color="#fff"/><stop offset="1" stop-color="#fff" stop-opacity="0"/></linearGradient><linearGradient id="Background__av" x1="311.972" y1="1468.68" x2="215.71" y2="1635.44" gradientUnits="userSpaceOnUse"><stop stop-color="#fff"/><stop offset="1" stop-color="#fff" stop-opacity="0"/></linearGradient><linearGradient id="Background__aw" x1="243.962" y1="1409.94" x2="274.629" y2="1496.89" gradientUnits="userSpaceOnUse"><stop stop-color="#fff"/><stop offset="1" stop-color="#fff" stop-opacity="0"/></linearGradient><linearGradient id="Background__ax" x1="153.708" y1="1406.27" x2="63.121" y2="1477.19" gradientUnits="userSpaceOnUse"><stop stop-color="#fff"/><stop offset="1" stop-color="#fff" stop-opacity="0"/></linearGradient><linearGradient id="Background__ay" x1="139.104" y1="1557.63" x2="108.227" y2="1581.98" gradientUnits="userSpaceOnUse"><stop stop-color="#fff"/><stop offset="1" stop-color="#fff" stop-opacity="0"/></linearGradient><linearGradient id="Background__az" x1="444.208" y1="1620.72" x2="310.969" y2="1620.7" gradientUnits="userSpaceOnUse"><stop stop-color="#fff"/><stop offset="1" stop-color="#fff" stop-opacity="0"/></linearGradient><linearGradient id="Background__aA" x1="280.755" y1="625.286" x2="178.975" y2="801.631" gradientUnits="userSpaceOnUse"><stop stop-color="#fff"/><stop offset=".903" stop-color="#fff" stop-opacity="0"/></linearGradient><linearGradient id="Background__aB" x1="222.044" y1="613.328" x2="120.252" y2="789.651" gradientUnits="userSpaceOnUse"><stop stop-color="#fff"/><stop offset=".903" stop-color="#fff" stop-opacity="0"/></linearGradient><linearGradient id="Background__aC" x1="396.499" y1="697.374" x2="271.059" y2="914.579" gradientUnits="userSpaceOnUse"><stop stop-color="#fff"/><stop offset="1" stop-color="#fff" stop-opacity="0"/></linearGradient><linearGradient id="Background__aD" x1="348.387" y1="834.592" x2="313.523" y2="894.959" gradientUnits="userSpaceOnUse"><stop stop-color="#fff"/><stop offset="1" stop-color="#fff" stop-opacity="0"/></linearGradient><linearGradient id="Background__aE" x1="307.9" y1="620.866" x2="347.905" y2="734.062" gradientUnits="userSpaceOnUse"><stop stop-color="#fff"/><stop offset="1" stop-color="#fff" stop-opacity="0"/></linearGradient><linearGradient id="Background__aF" x1="296.54" y1="872.281" x2="230.097" y2="987.358" gradientUnits="userSpaceOnUse"><stop stop-color="#fff"/><stop offset="1" stop-color="#fff" stop-opacity="0"/></linearGradient><linearGradient id="Background__aG" x1="330.884" y1="1107.96" x2="296.02" y2="1168.32" gradientUnits="userSpaceOnUse"><stop stop-color="#fff"/><stop offset="1" stop-color="#fff" stop-opacity="0"/></linearGradient><linearGradient id="Background__aH" x1="119.711" y1="982.65" x2="84.847" y2="1043.02" gradientUnits="userSpaceOnUse"><stop stop-color="#fff"/><stop offset="1" stop-color="#fff" stop-opacity="0"/></linearGradient><linearGradient id="Background__aI" x1="126.733" y1="682.17" x2="279.85" y2="941.396" gradientUnits="userSpaceOnUse"><stop stop-color="#fff"/><stop offset="1" stop-color="#fff" stop-opacity="0"/></linearGradient><linearGradient id="Background__aJ" x1="73.513" y1="516.849" x2="-27.792" y2="635.056" gradientUnits="userSpaceOnUse"><stop stop-color="#fff"/><stop offset="1" stop-color="#fff" stop-opacity="0"/></linearGradient><linearGradient id="Background__aK" x1="135.914" y1="570.375" x2="34.609" y2="688.582" gradientUnits="userSpaceOnUse"><stop stop-color="#fff"/><stop offset="1" stop-color="#fff" stop-opacity="0"/></linearGradient><linearGradient id="Background__aL" x1="105.362" y1="543.789" x2="4.056" y2="661.996" gradientUnits="userSpaceOnUse"><stop stop-color="#fff"/><stop offset="1" stop-color="#fff" stop-opacity="0"/></linearGradient><linearGradient id="Background__aM" x1="80.086" y1="1045.43" x2="-21.219" y2="1163.64" gradientUnits="userSpaceOnUse"><stop stop-color="#fff"/><stop offset="1" stop-color="#fff" stop-opacity="0"/></linearGradient><linearGradient id="Background__aN" x1="142.487" y1="1098.96" x2="41.182" y2="1217.17" gradientUnits="userSpaceOnUse"><stop stop-color="#fff"/><stop offset="1" stop-color="#fff" stop-opacity="0"/></linearGradient><linearGradient id="Background__aO" x1="111.935" y1="1072.37" x2="10.63" y2="1190.58" gradientUnits="userSpaceOnUse"><stop stop-color="#fff"/><stop offset="1" stop-color="#fff" stop-opacity="0"/></linearGradient><linearGradient id="Background__aP" x1="467.264" y1="183.969" x2="321.852" y2="435.97" gradientUnits="userSpaceOnUse"><stop stop-color="#fff"/><stop offset="1" stop-color="#fff" stop-opacity="0"/></linearGradient><linearGradient id="Background__aQ" x1="397.354" y1="142.539" x2="251.942" y2="394.54" gradientUnits="userSpaceOnUse"><stop stop-color="#fff"/><stop offset="1" stop-color="#fff" stop-opacity="0"/></linearGradient><linearGradient id="Background__aR" x1="443.683" y1="201.656" x2="298.271" y2="453.657" gradientUnits="userSpaceOnUse"><stop stop-color="#fff"/><stop offset="1" stop-color="#fff" stop-opacity="0"/></linearGradient><linearGradient id="Background__aS" x1="373.773" y1="160.226" x2="228.361" y2="412.227" gradientUnits="userSpaceOnUse"><stop stop-color="#fff"/><stop offset="1" stop-color="#fff" stop-opacity="0"/></linearGradient><linearGradient id="Background__aT" x1="188.176" y1="207.278" x2="91.914" y2="374.039" gradientUnits="userSpaceOnUse"><stop stop-color="#fff"/><stop offset="1" stop-color="#fff" stop-opacity="0"/></linearGradient><linearGradient id="Background__aU" x1="120.166" y1="148.546" x2="150.834" y2="235.493" gradientUnits="userSpaceOnUse"><stop stop-color="#fff"/><stop offset="1" stop-color="#fff" stop-opacity="0"/></linearGradient><linearGradient id="Background__aV" x1="311.972" y1="431.035" x2="215.71" y2="597.796" gradientUnits="userSpaceOnUse"><stop stop-color="#fff"/><stop offset="1" stop-color="#fff" stop-opacity="0"/></linearGradient><linearGradient id="Background__aW" x1="243.962" y1="372.303" x2="274.629" y2="459.25" gradientUnits="userSpaceOnUse"><stop stop-color="#fff"/><stop offset="1" stop-color="#fff" stop-opacity="0"/></linearGradient><linearGradient id="Background__aX" x1="153.708" y1="368.631" x2="63.121" y2="439.552" gradientUnits="userSpaceOnUse"><stop stop-color="#fff"/><stop offset="1" stop-color="#fff" stop-opacity="0"/></linearGradient><linearGradient id="Background__aY" x1="139.104" y1="519.992" x2="108.227" y2="544.342" gradientUnits="userSpaceOnUse"><stop stop-color="#fff"/><stop offset="1" stop-color="#fff" stop-opacity="0"/></linearGradient><linearGradient id="Background__aZ" x1="444.208" y1="583.075" x2="310.969" y2="583.06" gradientUnits="userSpaceOnUse"><stop stop-color="#fff"/><stop offset="1" stop-color="#fff" stop-opacity="0"/></linearGradient></defs></svg>