<svg width="1440" height="3146" fill="none" xmlns="http://www.w3.org/2000/svg"><path opacity=".4" d="M821.066 2287.3c-17.665-10.19-30.342-10.4-38.032-.84-7.897 9.57-11.638 25.79-11.638 48.45v122.69c0 23.29-2.078 42.62-6.442 58.01-4.364 16.01-11.638 27.24-21.614 33.9-9.767 6.86-23.068 8.52-39.901 5.4-16.418-2.91-36.993-11.64-61.516-25.78l-11.638-6.86v-96.7l14.756 8.53c17.664 10.19 29.303 11.44 35.122 4.16 6.234-7.28 9.352-22.25 9.352-44.92v-108.12c0-28.28 2.701-50.53 8.312-66.75 5.404-16.43 16.418-26.83 32.836-31.4-16.418-23.5-27.432-46.79-32.836-69.45-5.403-22.67-8.105-48.04-8.105-76.32v-108.12c0-22.67-3.117-41.38-9.352-55.73-5.819-14.14-17.665-26.41-35.122-36.6l-14.755-8.52v-96.7l11.638 6.87c24.523 14.14 45.097 29.32 61.515 45.33 16.834 16.22 30.135 33.27 39.902 51.57 10.184 18.29 17.457 37.84 21.614 58.84 4.364 20.38 6.442 42.21 6.442 65.5v122.69c0 22.66 3.949 43.46 11.638 61.96 7.898 18.51 20.575 33.06 38.032 43.05l-.208 95.86Z" fill="url(#Background__a)"/><path opacity=".4" d="M375.91 1931.93c17.665 10.19 30.342 10.4 38.032.83 7.897-9.56 11.638-25.78 11.638-48.45v-122.68c0-23.29 2.078-42.63 6.442-58.02 4.364-16.01 11.43-27.24 21.198-34.1 10.183-6.65 23.484-8.32 39.902-5.41 16.833 3.12 37.616 11.86 62.139 26.2l11.638 6.87v96.69l-14.756-8.53c-17.665-10.19-29.51-11.64-35.745-4.36-5.819 7.48-8.729 22.45-8.729 45.33v108.12c0 28.08-2.701 50.53-8.313 66.75-5.403 16.43-16.418 26.83-32.835 31.4 16.417 23.5 27.432 46.79 32.835 69.45 5.404 22.67 8.106 48.04 8.106 76.32v108.12c0 22.67 2.909 41.18 8.728 55.52 6.235 14.35 18.081 26.83 35.745 36.81l14.756 8.52V2484l-11.638-6.86c-24.523-14.14-45.305-29.52-62.139-45.54-16.418-16.01-29.719-33.06-39.902-51.56-9.768-18.1-16.833-37.64-20.99-58.44-4.364-20.37-6.442-42.21-6.442-65.5v-122.68c0-22.66-3.949-43.46-11.638-61.96-7.898-18.51-20.575-33.07-38.032-43.05v-96.48Z" fill="url(#Background__b)"/><path opacity=".15" d="m881.126 1689.47 438.714 253.48-.21 1052.38-438.712-253.27.208-1052.59Z" fill="url(#Background__c)"/><path d="m798.621 1827.34 349.139 201.49v96.69l-349.139-201.49v-96.69Z" fill="#181818"/><path opacity=".2" d="m938.278 2275.03 330.852 191.09v292.57L938.278 2567.6v-292.57Z" fill="url(#Background__d)"/><path opacity=".15" d="m934.952 2050.66 335.838 194.01v33.06l-335.838-194.01v-33.06Zm0 66.54 290.328 167.6v33.06l-290.328-167.6v-33.06Zm0 65.71 246.478 142.23v33.06l-246.478-142.23v-33.06Z" fill="#fff"/><path opacity=".2" d="m881.126 1689.47 438.714 253.48v140.98l-438.922-253.27.208-141.19Z" fill="url(#Background__e)"/><path opacity=".2" d="M990.648 1824.22c0 21.41-12.469 31.4-27.848 22.45-15.379-8.94-27.848-33.27-27.848-54.68 0-21.42 12.469-31.4 27.848-22.46 15.379 8.94 27.848 33.48 27.848 54.69Z" fill="#fff"/><path opacity=".15" d="M90.571 2011.78 1441 2791.55l-.21 1053L90.364 3064.78l.207-1053Z" fill="url(#Background__f)"/><path d="m1 2271.28 348.933 201.5v96.69L1 2368.18v-96.9Z" fill="#585858"/><path opacity=".15" d="m181.596 2537.03 774.761 447.48v33.06l-774.761-447.48v-33.06Zm0 66.54 668.357 385.93v33.07l-668.357-385.94v-33.06Zm0 65.92 568.81 328.54v33.06l-568.81-328.54v-33.06Z" fill="#fff"/><path opacity=".2" d="m704.478 3088.69 681.242 393.42v292.57l-681.242-393.42v-292.57Z" fill="url(#Background__g)"/><path opacity=".2" d="m54.825 2702.34 567.147 327.5v292.57L54.825 2994.7v-292.36Z" fill="url(#Background__h)"/><path opacity=".15" d="m111.976 2810.26 450.558 260.13v33.06l-450.558-260.13v-33.06Zm0 66.54 360.779 208.36v33.06l-360.779-208.56v-32.86Z" fill="#fff"/><path opacity=".2" d="m90.57 2011.78 1348.56 778.93v142.65L90.57 2154.63v-142.85Z" fill="url(#Background__i)"/><path opacity=".2" d="M237.502 2167.94c0 21.42-12.47 31.4-27.849 22.46-15.378-8.94-27.848-33.27-27.848-54.69 0-21.42 12.47-31.4 27.848-22.46 15.379 8.94 27.849 33.48 27.849 54.69Z" fill="#fff"/><path opacity=".07" d="M328.136 1487.23c-230.318-132.95-418.363 24.55-418.363 355.09L-149 1808.37c.136-373.37 213-555 477.136-402.55v81.41Z" fill="url(#Background__j)"/><path opacity=".07" d="M136.136 1973.23c0-146.73 85.909-216.13 191.864-155.04v-81.41c-138.409-79.91-250.637 10.77-250.637 202.5l58.773 33.95Z" fill="url(#Background__k)"/><path opacity=".07" d="M21.59 1905.6c0-234.28 137.183-345 306.137-247.37v-81.41C126.318 1460.5-37.182 1592.5-37.182 1871.64l58.773 33.96Z" fill="url(#Background__l)"/><path opacity=".24" d="M350.136 3256.41c-230.318-132.95-418.363 24.55-418.363 355.09L-127 3577.55c.136-373.36 213-555 477.136-402.55v81.41Z" fill="url(#Background__m)"/><path opacity=".07" d="M1440.8 977.993c-25.06-14.602-43.21-14.997-54.46-1.184-11.24 13.616-16.77 36.701-16.77 69.261v175.43c0 33.35-3.15 60.97-9.27 82.88-6.12 22.69-16.58 38.87-30.98 48.34-14.01 9.67-32.95 12.24-57.02 7.7-23.48-4.34-52.88-16.58-88.01-36.9l-16.77-9.67v-138.13l20.92 12.04c25.06 14.6 41.83 16.37 50.31 5.72 8.88-10.26 13.42-31.77 13.42-64.33V974.638c0-40.255 3.95-72.025 11.84-95.508 7.89-23.482 23.48-38.282 46.96-44.991-23.48-33.743-39.07-66.697-46.96-99.06-7.89-32.362-11.64-68.671-11.64-108.926v-154.51c0-32.559-4.54-59.001-13.42-79.721-8.29-20.325-25.06-37.69-50.31-52.293l-20.92-12.037V189.461l16.77 9.669c35.12 20.325 64.52 41.834 88 64.725 24.08 23.087 43.02 47.753 57.03 73.604 14.6 26.245 24.86 54.266 30.98 84.062 6.11 29.008 9.27 60.384 9.27 93.535v175.427c0 32.559 5.52 62.159 16.77 88.601 11.25 26.64 29.4 47.162 54.46 61.567l-.2 137.342Z" fill="url(#Background__n)"/><path opacity=".07" d="M804.464 469.868c25.059 14.602 43.212 14.997 54.459 1.183 11.247-13.615 16.771-36.703 16.771-69.262V226.362c0-33.349 3.157-60.975 9.274-82.879 6.117-22.693 16.18-39.071 30.189-48.74 14.602-9.472 33.544-12.038 57.024-7.696 24.072 4.538 53.669 16.97 88.789 37.295l16.77 9.669v138.131l-20.91-12.037c-25.06-14.602-42.23-16.575-51.11-6.314-8.283 10.656-12.624 32.165-12.624 64.724v154.51c0 40.255-3.946 72.025-11.838 95.508-7.893 23.285-23.481 38.282-46.961 44.991 23.48 33.743 39.068 66.698 46.961 99.06 7.892 32.362 11.641 68.671 11.641 108.926v154.51c0 32.56 4.144 59 12.631 79.33 8.88 20.72 26.04 38.28 51.1 52.68l20.92 12.04v138.13l-16.77-9.67c-35.13-20.32-64.724-42.03-88.796-65.12-23.481-22.89-42.423-47.36-57.024-73.6-14.009-25.85-24.072-53.67-30.189-83.67-6.117-29.006-9.274-60.381-9.274-93.533V757.181c0-32.56-5.525-62.16-16.772-88.602-11.247-26.639-29.399-47.162-54.458-61.567l.197-137.144Z" fill="url(#Background__o)"/><path opacity=".4" d="M1361.88 1037.19c-25.06-14.6-43.21-14.99-54.46-1.18-11.25 13.61-16.77 36.7-16.77 69.26v175.43c0 33.35-3.16 60.97-9.28 82.88-6.11 22.69-16.57 38.87-30.98 48.34-14 9.67-32.95 12.24-57.02 7.7-23.48-4.34-52.88-16.58-88-36.9l-16.77-9.67v-138.13l20.91 12.03c25.06 14.61 41.83 16.38 50.32 5.73 8.88-10.26 13.41-31.77 13.41-64.33v-154.51c0-40.258 3.95-72.028 11.84-95.51 7.9-23.483 23.48-38.282 46.96-44.992-23.48-33.743-39.06-66.697-46.96-99.059-7.89-32.363-11.64-68.671-11.64-108.927V530.843c0-32.56-4.54-59.002-13.42-79.722-8.28-20.325-25.05-37.69-50.31-52.292l-20.92-12.038V248.66l16.78 9.669c35.12 20.325 64.52 41.834 88 64.725 24.07 23.087 43.01 47.754 57.02 73.604 14.6 26.245 24.86 54.266 30.98 84.063 6.12 29.007 9.27 60.383 9.27 93.534v175.427c0 32.559 5.53 62.159 16.78 88.601 11.24 26.64 29.4 47.162 54.45 61.567l-.19 137.34Z" fill="url(#Background__p)"/><path opacity=".4" d="M725.538 529.067c25.059 14.602 43.212 14.997 54.459 1.184 11.247-13.616 16.772-36.704 16.772-69.263V285.561c0-33.349 3.157-60.975 9.273-82.879 6.117-22.693 16.18-39.071 30.19-48.74 14.601-9.472 33.543-12.038 57.023-7.696 24.073 4.538 53.67 16.97 88.792 37.295l16.772 9.669v138.132l-20.916-12.038c-25.059-14.602-42.225-16.575-51.104-6.314-8.287 10.656-12.628 32.165-12.628 64.724v154.51c0 40.255-3.947 72.025-11.839 95.508-7.893 23.285-23.481 38.282-46.961 44.991 23.48 33.744 39.068 66.698 46.961 99.06 7.892 32.362 11.641 68.671 11.641 108.926v154.511c0 32.56 4.144 59 12.629 79.33 8.879 20.72 26.045 38.28 51.104 52.68l20.915 12.04v138.13l-16.771-9.67c-35.122-20.32-64.72-42.03-88.792-65.12-23.48-22.89-42.422-47.36-57.024-73.6-14.009-25.85-24.072-53.68-30.189-83.67-6.117-29.01-9.274-60.38-9.274-93.534V816.38c0-32.56-5.524-62.159-16.771-88.602-11.247-26.639-29.4-47.162-54.459-61.567l.197-137.144Z" fill="url(#Background__q)"/><path opacity=".15" d="m287.5 109.148 337.211 194.765-.198 807.677-337.21-194.769.197-807.673Z" fill="url(#Background__r)"/><path d="m224.163 233.268 268.15 154.905v74.393l-268.15-154.904v-74.394Z" fill="#181818"/><path opacity=".15" d="m329.134 556.101 257.693 148.787v115.636L329.134 671.736V556.101Zm-.197-139.907 258.087 148.984v26.837L328.937 443.228v-27.034Zm0 52.489L552.099 597.54v26.837L328.937 495.52v-26.837Z" fill="#fff"/><path opacity=".2" d="m287.501 109.148 337.21 194.765v108.334l-337.21-194.765V109.148Z" fill="url(#Background__s)"/><path opacity=".2" d="M371.754 212.549c0 16.378-9.668 24.074-21.507 17.365-11.839-6.907-21.31-25.653-21.31-42.032 0-16.378 9.668-24.074 21.507-17.365 11.641 6.907 21.31 25.653 21.31 42.032Z" fill="#fff"/><path opacity=".15" d="m701.861 858.016 337.209 194.764-.2 807.67-337.207-194.76.198-807.674Z" fill="url(#Background__t)"/><path d="m830.312 1093.04 268.148 154.7v74.2l-268.345-154.71.197-74.19Z" fill="#585858"/><path opacity=".15" d="m743.494 1169.8 257.886 148.98v115.44l-257.886-148.98V1169.8Zm-.395 164.97 258.091 148.98v26.84L743.099 1361.8v-27.03Zm0 48.54 223.163 128.86V1539l-223.163-128.85v-26.84Z" fill="#fff"/><path opacity=".2" d="m701.861 858.016 337.209 194.764v108.34L701.861 966.351V858.016Z" fill="url(#Background__u)"/><path opacity=".2" d="M786.114 961.615c0 16.378-9.668 24.074-21.507 17.365-11.839-6.907-21.31-25.653-21.31-42.032 0-16.378 9.668-24.074 21.507-17.365 11.642 6.709 21.31 25.653 21.31 42.032Z" fill="#fff"/><path opacity=".3" d="M643.455 969.903 56.445 631.086l.198 306.06 535.313 309.024 51.894 76.76-.395-353.027Z" fill="url(#Background__v)"/><path opacity=".15" d="m492.511 957.274-128.649-74.197v26.837l128.649 74.196v-26.836Zm-.001 53.866L174.045 827.233v26.837l318.663 183.91-.198-26.84Zm.198 53.88L108.142 843.019v26.837l384.566 221.994v-26.83Z" fill="#fff"/><path d="M524.278 1003.65c0 25.25 14.996 54.26 33.346 64.92 18.35 10.65 33.346-1.19 33.346-26.44 0-25.26-14.996-54.27-33.346-64.926-18.548-10.656-33.346 1.184-33.346 26.446Z" fill="#585858"/><path opacity=".15" d="m114.456 416.194-77.742-44.992v-26.245l77.742 44.992c6.314 3.749 15.588 11.05 23.48 22.495 8.485 12.235 14.602 27.627 14.602 44.4 0 18.549-4.736 29.007-13.615 32.165-8.485 2.762-18.35-1.974-24.467-5.526l-31.965-18.549-.197-.197c-2.763-1.579-7.104-3.157-10.458-2.171-2.762.79-6.117 3.75-6.117 14.011s3.157 16.576 5.92 20.325c3.354 4.736 7.695 8.09 10.457 9.472l.395.197 97.868 56.436v26.245l-97.276-56.239c-6.709-3.552-16.377-10.853-24.664-22.495-9.077-12.827-15.39-29.008-15.39-47.162 0-17.957 6.313-27.232 15.192-29.797 8.288-2.368 17.956 1.184 24.665 5.13l31.767 18.352c4.538 2.565 8.09 3.749 10.261 2.96 1.775-.592 4.932-3.157 4.932-16.378 0-8.683-2.762-14.208-5.524-18.155-3.157-4.341-7.301-7.893-9.866-9.274Z" fill="#fff"/><path d="M59.8 373.965c0 22.496-13.22 32.954-29.4 23.679C14.22 388.37 1 362.52 1 340.024c0-22.496 13.22-32.954 29.4-23.68 16.18 9.472 29.4 35.323 29.4 57.621Z" fill="#585858"/><path d="M215.678 591.028c0 22.496-13.22 32.954-29.4 23.68-16.18-9.275-29.4-35.125-29.4-57.621 0-22.495 13.22-32.954 29.4-23.679 16.18 9.472 29.4 35.322 29.4 57.62Z" fill="#181818"/><path opacity=".2" d="M425.424 1277.15c11.838 6.9 21.309 23.28 21.309 37.09v60.19l39.858 22.89c11.839 6.91 21.31 23.29 21.31 37.1 0 13.61-9.668 19.14-21.31 12.43l-39.858-22.89v60.19c0 13.61-9.668 19.14-21.309 12.43-11.839-6.91-21.31-23.29-21.31-37.1v-60.19l-39.858-22.89c-11.839-6.9-21.31-23.28-21.31-37.09 0-13.62 9.669-19.15 21.31-12.44l39.858 22.89v-60.18c0-13.82 9.471-19.34 21.31-12.43Z" fill="url(#Background__w)"/><path opacity=".3" d="M1414.17 1752.6c0-14.2-10.07-31.57-22.3-38.67l-175.61-101.43v-147.01l-174.43-100.64c-12.43-7.1-22.29-1.38-22.29 12.83 0 14.2 10.06 31.57 22.29 38.67l129.84 74.99v147.01l220.4 127.08c12.23 7.11 22.1 1.38 22.1-12.83Z" fill="url(#Background__x)"/><path d="M1441.39 1769.57c0 39.08-22.88 57.63-51.1 41.25-28.22-16.18-51.1-61.18-51.1-100.25s22.88-57.62 51.1-41.24c28.22 16.18 51.1 61.17 51.1 100.24Z" fill="#585858"/><path fill="#000" fill-opacity=".7" d="M1 0h1440v16093.2H1z"/><defs><linearGradient id="Background__a" x1="940.692" y1="1706.45" x2="600.031" y2="2296.68" gradientUnits="userSpaceOnUse"><stop stop-color="#fff"/><stop offset=".903" stop-color="#fff" stop-opacity="0"/></linearGradient><linearGradient id="Background__b" x1="744.186" y1="1666.43" x2="403.485" y2="2256.58" gradientUnits="userSpaceOnUse"><stop stop-color="#fff"/><stop offset=".903" stop-color="#fff" stop-opacity="0"/></linearGradient><linearGradient id="Background__c" x1="1328.09" y1="1947.73" x2="908.237" y2="2674.72" gradientUnits="userSpaceOnUse"><stop stop-color="#fff"/><stop offset="1" stop-color="#fff" stop-opacity="0"/></linearGradient><linearGradient id="Background__d" x1="1167.06" y1="2407" x2="1050.37" y2="2609.05" gradientUnits="userSpaceOnUse"><stop stop-color="#fff"/><stop offset="1" stop-color="#fff" stop-opacity="0"/></linearGradient><linearGradient id="Background__e" x1="1031.54" y1="1691.66" x2="1165.44" y2="2070.53" gradientUnits="userSpaceOnUse"><stop stop-color="#fff"/><stop offset="1" stop-color="#fff" stop-opacity="0"/></linearGradient><linearGradient id="Background__f" x1="993.524" y1="2533.15" x2="771.137" y2="2918.31" gradientUnits="userSpaceOnUse"><stop stop-color="#fff"/><stop offset="1" stop-color="#fff" stop-opacity="0"/></linearGradient><linearGradient id="Background__g" x1="1108.47" y1="3321.95" x2="991.782" y2="3524.01" gradientUnits="userSpaceOnUse"><stop stop-color="#fff"/><stop offset="1" stop-color="#fff" stop-opacity="0"/></linearGradient><linearGradient id="Background__h" x1="401.675" y1="2902.55" x2="284.985" y2="3104.61" gradientUnits="userSpaceOnUse"><stop stop-color="#fff"/><stop offset="1" stop-color="#fff" stop-opacity="0"/></linearGradient><linearGradient id="Background__i" x1="425.178" y1="1896.84" x2="937.662" y2="2764.48" gradientUnits="userSpaceOnUse"><stop stop-color="#fff"/><stop offset="1" stop-color="#fff" stop-opacity="0"/></linearGradient><linearGradient id="Background__j" x1="247.049" y1="1343.51" x2="-92.022" y2="1739.15" gradientUnits="userSpaceOnUse"><stop stop-color="#fff"/><stop offset="1" stop-color="#fff" stop-opacity="0"/></linearGradient><linearGradient id="Background__k" x1="455.907" y1="1522.66" x2="116.838" y2="1918.31" gradientUnits="userSpaceOnUse"><stop stop-color="#fff"/><stop offset="1" stop-color="#fff" stop-opacity="0"/></linearGradient><linearGradient id="Background__l" x1="353.646" y1="1433.68" x2="14.577" y2="1829.32" gradientUnits="userSpaceOnUse"><stop stop-color="#fff"/><stop offset="1" stop-color="#fff" stop-opacity="0"/></linearGradient><linearGradient id="Background__m" x1="269.049" y1="3112.69" x2="-70.022" y2="3508.33" gradientUnits="userSpaceOnUse"><stop stop-color="#fff"/><stop offset="1" stop-color="#fff" stop-opacity="0"/></linearGradient><linearGradient id="Background__n" x1="1564.94" y1="229.358" x2="1078.24" y2="1072.81" gradientUnits="userSpaceOnUse"><stop stop-color="#fff"/><stop offset="1" stop-color="#fff" stop-opacity="0"/></linearGradient><linearGradient id="Background__o" x1="1330.95" y1="90.691" x2="844.254" y2="934.141" gradientUnits="userSpaceOnUse"><stop stop-color="#fff"/><stop offset="1" stop-color="#fff" stop-opacity="0"/></linearGradient><linearGradient id="Background__p" x1="1486.01" y1="288.557" x2="999.319" y2="1132.01" gradientUnits="userSpaceOnUse"><stop stop-color="#fff"/><stop offset="1" stop-color="#fff" stop-opacity="0"/></linearGradient><linearGradient id="Background__q" x1="1252.02" y1="149.89" x2="765.328" y2="993.34" gradientUnits="userSpaceOnUse"><stop stop-color="#fff"/><stop offset="1" stop-color="#fff" stop-opacity="0"/></linearGradient><linearGradient id="Background__r" x1="630.829" y1="307.372" x2="308.638" y2="865.525" gradientUnits="userSpaceOnUse"><stop stop-color="#fff"/><stop offset="1" stop-color="#fff" stop-opacity="0"/></linearGradient><linearGradient id="Background__s" x1="403.199" y1="110.797" x2="505.843" y2="401.809" gradientUnits="userSpaceOnUse"><stop stop-color="#fff"/><stop offset="1" stop-color="#fff" stop-opacity="0"/></linearGradient><linearGradient id="Background__t" x1="1045.17" y1="1056.29" x2="722.984" y2="1614.44" gradientUnits="userSpaceOnUse"><stop stop-color="#fff"/><stop offset="1" stop-color="#fff" stop-opacity="0"/></linearGradient><linearGradient id="Background__u" x1="817.544" y1="859.715" x2="920.188" y2="1150.73" gradientUnits="userSpaceOnUse"><stop stop-color="#fff"/><stop offset="1" stop-color="#fff" stop-opacity="0"/></linearGradient><linearGradient id="Background__v" x1="515.462" y1="847.424" x2="212.268" y2="1084.8" gradientUnits="userSpaceOnUse"><stop stop-color="#fff"/><stop offset="1" stop-color="#fff" stop-opacity="0"/></linearGradient><linearGradient id="Background__w" x1="466.582" y1="1354.03" x2="363.238" y2="1435.53" gradientUnits="userSpaceOnUse"><stop stop-color="#fff"/><stop offset="1" stop-color="#fff" stop-opacity="0"/></linearGradient><linearGradient id="Background__x" x1="1487.77" y1="1565.17" x2="1041.82" y2="1565.12" gradientUnits="userSpaceOnUse"><stop stop-color="#fff"/><stop offset="1" stop-color="#fff" stop-opacity="0"/></linearGradient></defs></svg>