<svg width="49" height="49" viewBox="0 0 49 49" xmlns="http://www.w3.org/2000/svg">
<path d="M21.2695 27.6108C21.1966 27.8022 21.1009 27.9675 20.9824 28.1056C20.8649 28.2459 20.7214 28.3547 20.5517 28.433C20.3821 28.5113 20.1744 28.5494 19.9318 28.5494C19.5915 28.5494 19.3098 28.4754 19.0836 28.3286C18.8574 28.1796 18.6769 27.9849 18.542 27.7402C18.4072 27.4977 18.3093 27.2215 18.2484 26.9181C18.1864 26.6147 18.157 26.3047 18.157 25.9915C18.157 25.6772 18.1864 25.3695 18.2484 25.0639C18.3093 24.7583 18.4072 24.4842 18.542 24.2417C18.6769 23.997 18.8574 23.8024 19.0836 23.6534C19.3098 23.5044 19.5925 23.4326 19.9318 23.4326C20.2266 23.4326 20.4691 23.4881 20.6561 23.6001C20.8432 23.7143 20.9933 23.8448 21.1064 23.9927C21.2195 24.1417 21.2978 24.2896 21.3413 24.4429C21.3848 24.5941 21.4152 24.7148 21.4326 24.8018H24.2253C24.1035 23.6273 23.6925 22.7203 22.991 22.0808C22.2907 21.4414 21.2967 21.1162 20.0102 21.1075C19.288 21.1075 18.6366 21.2239 18.0592 21.4599C17.4806 21.6937 16.9847 22.0254 16.5714 22.4517C16.1582 22.878 15.8406 23.3902 15.6188 23.9916C15.3969 24.5908 15.2849 25.2585 15.2849 25.9883C15.2849 26.6745 15.3904 27.3183 15.5981 27.9132C15.8069 28.5102 16.1147 29.0235 16.5192 29.4596C16.9238 29.8957 17.4164 30.2393 17.9993 30.4917C18.5822 30.7418 19.2522 30.8701 20.0102 30.8701C20.6888 30.8701 21.2934 30.7559 21.8241 30.5308C22.3537 30.3035 22.7996 30.0066 23.1607 29.6369C23.5217 29.2671 23.7958 28.8506 23.9828 28.3906C24.1699 27.9316 24.2645 27.464 24.2645 26.9953H21.4446C21.4022 27.2128 21.3445 27.4205 21.2695 27.6108Z"/>
<path d="M28.9495 26.9833H28.9234L27.3965 21.3326H24.4994L27.2791 30.6504H30.4894L33.4007 21.3326H30.4503L28.9495 26.9833Z"/>
<path d="M36.3565 0H5.63217V49H43.3677V6.79803L36.3565 0ZM40.1052 45.7364H8.89471V3.26253H34.6752V8.43909H40.1041L40.1052 45.7364Z"/>
</svg>
