<svg width="505" height="462" viewBox="0 0 505 462" fill="none" xmlns="http://www.w3.org/2000/svg">
<mask id="path-1-outside-1_3_67" maskUnits="userSpaceOnUse" x="0" y="0" width="505" height="462" fill="black">
<rect fill="white" width="505" height="462"/>
<path d="M29.6356 343.542C27.4681 343.542 24.1085 343.217 19.5568 342.568C16.0888 338.892 12.9459 333.918 10.1281 327.646C7.52713 321.158 5.468 314.346 3.95075 307.209C2.65025 299.856 2 292.611 2 285.475C2.21675 278.122 3.51725 271.634 5.9015 266.011C5.9015 265.795 6.87688 263.199 8.82763 258.225C10.9951 253.251 13.7045 246.98 16.9558 239.41C20.207 231.625 23.8918 223.082 28.01 213.783C32.1283 204.267 36.2465 194.968 40.3648 185.885C44.483 176.802 48.3845 168.584 52.0693 161.231C55.9708 153.662 59.3304 147.823 62.1482 143.713C64.0989 140.686 65.8329 137.766 67.3502 134.955C69.0842 132.143 70.7098 129.548 72.2271 127.169C74.6113 123.277 76.7788 119.708 78.7296 116.464C80.8971 113.004 83.1729 109.976 85.5572 107.381C88.1582 104.57 90.9759 102.191 94.0105 100.244C97.045 98.0818 100.73 96.2435 105.065 94.7297C107.666 95.811 109.942 97.0004 111.892 98.298C113.843 99.3793 115.577 100.785 117.094 102.515L118.07 107.057C118.503 108.571 119.153 109.652 120.02 110.301C121.104 110.733 121.971 110.949 122.621 110.949C125.439 111.598 127.823 112.355 129.774 113.22C131.942 113.869 134.218 114.302 136.602 114.518C137.469 115.815 138.227 117.113 138.878 118.411C139.745 119.708 140.612 120.898 141.479 121.979C145.814 128.251 149.39 134.306 152.208 140.145C155.026 145.984 155.026 152.364 152.208 159.285L152.533 162.853C153.617 164.367 154.159 165.772 154.159 167.07C154.159 168.368 153.942 170.206 153.508 172.585C153.292 174.315 153.075 176.261 152.858 178.424C152.858 180.37 153.183 182.533 153.833 184.912L156.109 187.507C159.577 189.237 162.937 190.102 166.188 190.102C170.523 190.102 174.425 189.129 177.893 187.183C181.361 185.236 184.612 183.29 187.647 181.343C190.031 179.613 192.198 178.208 194.149 177.126C196.317 176.045 198.376 175.288 200.326 174.856C204.878 170.53 208.996 166.746 212.681 163.502C216.583 160.041 220.593 156.581 224.711 153.121C232.514 146.849 240.1 140.145 247.47 133.008C254.839 125.655 260.691 116.572 265.026 105.759C267.411 104.245 270.12 103.488 273.154 103.488C276.189 103.488 279.223 104.137 282.258 105.435C285.292 106.516 288.327 107.814 291.361 109.327C292.012 109.76 292.554 110.084 292.987 110.301C293.637 110.517 294.288 110.841 294.938 111.274C294.938 113.653 295.913 115.815 297.864 117.762C298.948 118.627 299.706 119.168 300.14 119.384C300.573 119.6 301.007 119.816 301.44 120.033C303.174 121.114 304.583 122.087 305.667 122.952C306.967 123.817 307.943 125.007 308.593 126.52C310.544 132.36 313.795 136.901 318.347 140.145C317.913 142.524 318.022 144.903 318.672 147.282C319.322 149.444 320.081 151.607 320.948 153.77C321.381 154.635 321.707 155.5 321.923 156.365C322.14 157.014 322.465 157.879 322.899 158.96L315.746 158.311L316.721 165.448C317.371 169.125 317.046 173.234 315.746 177.775C314.662 182.317 313.362 185.885 311.844 188.48C312.278 194.968 312.495 200.158 312.495 204.051C312.495 207.728 312.278 211.188 311.844 214.432C311.411 217.676 310.652 220.812 309.568 223.839C308.702 226.651 307.509 229.678 305.992 232.922C306.859 249.359 304.908 264.389 300.14 278.014C295.588 291.638 290.603 304.398 285.184 316.292C284.534 317.806 283.884 319.212 283.233 320.509C282.583 321.807 282.041 323.105 281.608 324.402C279.223 325.051 277.056 325.808 275.105 326.673C273.154 327.538 271.312 328.511 269.578 329.592C267.194 331.106 264.81 332.404 262.425 333.485C260.041 334.35 257.548 334.783 254.947 334.783C244.543 327.214 239.125 314.13 238.691 295.531C238.474 276.932 242.484 253.251 250.721 224.488C252.238 223.407 252.888 221.785 252.672 219.622V216.054L249.42 215.729C248.337 215.729 247.361 215.838 246.494 216.054C245.627 216.27 244.977 217.243 244.543 218.973C237.607 223.947 230.021 229.138 221.785 234.544C213.765 239.735 205.42 244.601 196.75 249.142C188.08 253.468 179.193 257.144 170.09 260.172C161.203 262.983 152.533 264.389 144.08 264.389C122.405 264.389 106.04 253.359 94.9858 231.3L92.0597 225.461L88.8084 230.652C88.1582 231.733 86.9661 233.896 85.2321 237.14C83.7148 240.167 82.0892 243.736 80.3552 247.845C78.8379 251.954 77.4291 256.171 76.1286 260.496C75.0448 264.821 74.7197 268.606 75.1532 271.85C72.5522 274.229 69.9512 276.932 67.3502 279.96C64.9659 282.988 63.2319 286.448 62.1482 290.341C61.7147 291.422 61.6063 292.503 61.823 293.585C62.0398 294.45 62.3649 295.423 62.7984 296.504C62.5817 298.018 62.1482 299.099 61.4979 299.748C60.8477 300.397 60.089 301.046 59.222 301.694C58.1383 302.776 57.0545 303.965 55.9708 305.263C54.887 306.344 53.9117 307.642 53.0447 309.156C52.6112 310.453 52.286 311.859 52.0693 313.373C51.8525 314.67 51.6358 315.86 51.419 316.941C51.419 319.32 51.0939 320.942 50.4437 321.807C48.2762 326.349 46.3254 330.133 44.5914 333.161C43.0742 335.972 41.5569 338.135 40.0397 339.649C38.5224 341.163 36.8968 342.136 35.1628 342.568C33.6455 343.217 31.8031 343.542 29.6356 343.542Z"/>
<path d="M241.783 212.884L246.009 209.64L246.334 202.828C251.753 189.636 257.28 176.984 262.916 164.874C268.768 152.763 274.837 140.328 281.123 127.568C283.073 123.459 285.024 119.35 286.975 115.241C289.142 111.132 291.202 106.915 293.152 102.59C292.936 101.725 292.827 100.86 292.827 99.9945C292.827 98.9131 293.044 97.7237 293.477 96.4261C296.512 92.1008 298.896 88.2081 300.63 84.7478C302.581 81.2876 304.423 77.7193 306.157 74.0428C308.108 69.7175 310.167 65.3922 312.335 61.0669C314.719 56.7416 317.645 52.5245 321.113 48.4155L323.389 45.1715L326.965 45.4959C327.832 45.0634 328.699 44.739 329.566 44.5227C330.65 44.0902 331.951 43.8739 333.468 43.8739L339.32 44.8471C346.473 41.6031 352.759 36.9535 358.177 30.8981C363.813 24.6264 369.448 17.1653 375.084 8.51474L378.985 3L384.187 6.24396C385.271 6.89275 387.005 7.54155 389.389 8.19034C391.774 8.83913 394.266 9.59606 396.867 10.4611C401.419 11.5424 405.862 12.84 410.197 14.3539C414.532 15.6515 417.892 17.4897 420.276 19.8686L421.902 22.7882C422.335 25.1671 422.661 27.3297 422.877 29.2761C423.311 31.2225 423.744 33.1688 424.178 35.1152C425.045 39.6568 425.803 44.1983 426.454 48.7399C427.104 53.0651 427.537 57.9311 427.754 63.3377C428.838 67.663 429.813 72.0964 430.68 76.6379C431.764 80.9632 432.739 85.2885 433.606 89.6138C434.69 95.8854 435.882 101.941 437.183 107.78C438.483 113.403 440.217 118.809 442.385 124C444.552 124 445.853 124.108 446.286 124.324C448.887 123.243 451.922 122.594 455.39 122.378L459.616 122.053L460.917 125.946C461.35 126.595 461.892 127.244 462.543 127.893C463.193 128.541 463.951 129.19 464.818 129.839C468.286 130.055 470.779 130.812 472.296 132.11C474.03 133.191 475.439 134.272 476.523 135.354C476.956 135.786 477.498 136.327 478.149 136.976C478.799 137.408 479.341 137.733 479.774 137.949L485.626 140.22L482.375 146.383C479.991 150.925 476.306 155.358 471.321 159.683C466.552 164.009 461.134 167.577 455.065 170.388C455.498 171.902 455.715 173.308 455.715 174.606C455.932 175.903 456.257 177.417 456.69 179.147C457.557 183.472 458.208 188.014 458.641 192.772C459.291 197.313 459.291 202.071 458.641 207.045C456.474 212.668 453.873 217.75 450.838 222.292C448.02 226.617 444.552 230.618 440.434 234.294C436.533 237.755 432.089 240.674 427.104 243.053C422.119 245.216 416.917 246.405 411.498 246.622C408.463 245.973 406.188 245.216 404.67 244.351C403.37 243.486 402.178 242.621 401.094 241.756C399.36 240.458 397.951 239.593 396.867 239.16L392.641 237.214L393.941 232.348C394.591 230.618 394.483 229.104 393.616 227.807C392.966 226.509 391.449 224.779 389.064 222.616C388.197 221.967 387.439 221.319 386.788 220.67C386.138 219.805 385.38 218.94 384.513 218.075L378.01 210.614L388.739 207.694C395.242 205.964 399.577 203.801 401.744 201.206C403.912 198.395 404.779 193.529 404.345 186.608C398.926 185.527 394.483 185.419 391.015 186.284C387.547 186.933 384.079 187.69 380.611 188.555C375.626 189.852 370.749 191.042 365.98 192.123C361.212 192.988 356.01 193.421 350.374 193.421C346.69 193.421 342.788 193.096 338.67 192.447L335.094 192.123L334.118 188.555C334.118 188.122 333.793 187.69 333.143 187.257C332.709 186.608 332.276 186.068 331.842 185.635C330.758 184.337 329.458 182.607 327.941 180.445C326.423 178.282 326.098 175.579 326.965 172.335C325.448 169.956 324.581 167.469 324.364 164.874C323.497 166.604 322.739 168.334 322.088 170.064C321.655 171.578 321.221 173.092 320.788 174.606L319.487 178.823L315.261 179.472C314.827 179.904 314.394 180.553 313.96 181.418C313.744 182.283 313.744 182.932 313.96 183.364L315.261 186.933L312.01 189.852C311.576 190.501 311.034 191.042 310.384 191.474C309.734 191.907 309.192 192.339 308.758 192.772C308.325 195.151 307.675 197.421 306.808 199.584C306.157 201.747 305.399 203.909 304.532 206.072C303.448 209.532 302.364 212.884 301.28 216.128C300.413 219.372 299.98 222.616 299.98 225.86L298.679 230.077C297.596 231.807 296.187 233.105 294.453 233.97C292.936 234.835 291.418 235.592 289.901 236.241C287.734 237.106 286.216 237.971 285.349 238.836L284.374 243.053L279.497 243.702C276.679 244.351 274.62 244.783 273.32 245C272.236 245.216 270.935 245.324 269.418 245.324L265.192 245C262.591 242.404 260.423 240.458 258.689 239.16C257.172 237.647 255.329 236.349 253.162 235.268L251.211 232.673C250.344 230.942 249.802 229.429 249.586 228.131C249.369 226.617 249.044 225.103 248.61 223.589C248.177 220.778 247.526 218.832 246.659 217.75L241.783 212.884ZM345.497 128.541C342.463 132.867 339.537 137.408 336.719 142.166C338.236 141.95 339.645 141.842 340.946 141.842C342.463 141.842 343.98 141.733 345.497 141.517C353.084 141.085 360.128 140.544 366.631 139.895C373.133 139.246 380.178 138.165 387.764 136.651C386.03 128.649 384.079 120.54 381.912 112.322C379.961 103.887 377.793 95.4529 375.409 87.0186L373.783 90.2626C368.365 96.1017 363.163 102.373 358.177 109.078C353.192 115.782 349.074 122.162 345.823 128.217L345.497 128.541Z"/>
<path d="M258.156 425.263L262.383 422.019L262.708 415.207C268.127 402.014 273.654 389.363 279.289 377.252C285.141 365.141 291.21 352.706 297.496 339.947C299.447 335.838 301.398 331.729 303.348 327.62C305.516 323.511 307.575 319.293 309.526 314.968C309.309 314.103 309.201 313.238 309.201 312.373C309.201 311.292 309.417 310.102 309.851 308.805C312.885 304.479 315.27 300.587 317.004 297.126C318.954 293.666 320.797 290.098 322.531 286.421C324.482 282.096 326.541 277.771 328.708 273.445C331.092 269.12 334.019 264.903 337.487 260.794L339.763 257.55L343.339 257.874C344.206 257.442 345.073 257.117 345.94 256.901C347.024 256.469 348.324 256.252 349.841 256.252L355.694 257.226C362.846 253.982 369.132 249.332 374.551 243.277C380.186 237.005 385.822 229.544 391.457 220.893L395.359 215.378L400.561 218.622C401.645 219.271 403.379 219.92 405.763 220.569C408.147 221.218 410.64 221.975 413.241 222.84C417.793 223.921 422.236 225.218 426.571 226.732C430.906 228.03 434.266 229.868 436.65 232.247L438.275 235.167C438.709 237.546 439.034 239.708 439.251 241.655C439.684 243.601 440.118 245.547 440.551 247.494C441.418 252.035 442.177 256.577 442.827 261.118C443.477 265.444 443.911 270.31 444.128 275.716C445.211 280.041 446.187 284.475 447.054 289.016C448.138 293.342 449.113 297.667 449.98 301.992C451.064 308.264 452.256 314.319 453.556 320.158C454.857 325.781 456.591 331.188 458.758 336.378C460.926 336.378 462.226 336.486 462.66 336.703C465.261 335.621 468.295 334.973 471.763 334.756L475.99 334.432L477.29 338.325C477.724 338.973 478.266 339.622 478.916 340.271C479.566 340.92 480.325 341.569 481.192 342.217C484.66 342.434 487.153 343.191 488.67 344.488C490.404 345.569 491.813 346.651 492.897 347.732C493.33 348.165 493.872 348.705 494.522 349.354C495.172 349.787 495.714 350.111 496.148 350.327L502 352.598L498.749 358.762C496.365 363.303 492.68 367.737 487.694 372.062C482.926 376.387 477.507 379.955 471.438 382.767C471.872 384.281 472.089 385.686 472.089 386.984C472.305 388.282 472.63 389.795 473.064 391.526C473.931 395.851 474.581 400.392 475.015 405.15C475.665 409.692 475.665 414.45 475.015 419.424C472.847 425.047 470.246 430.129 467.212 434.67C464.394 438.996 460.926 442.996 456.808 446.673C452.906 450.133 448.463 453.053 443.477 455.432C438.492 457.594 433.29 458.784 427.871 459C424.837 458.351 422.561 457.594 421.044 456.729C419.743 455.864 418.551 454.999 417.467 454.134C415.733 452.836 414.325 451.971 413.241 451.539L409.014 449.592L410.315 444.727C410.965 442.996 410.857 441.483 409.99 440.185C409.339 438.887 407.822 437.157 405.438 434.995C404.571 434.346 403.812 433.697 403.162 433.048C402.512 432.183 401.753 431.318 400.886 430.453L394.384 422.992L405.113 420.072C411.615 418.342 415.95 416.18 418.118 413.585C420.285 410.773 421.152 405.907 420.719 398.987C415.3 397.905 410.857 397.797 407.389 398.662C403.921 399.311 400.453 400.068 396.985 400.933C391.999 402.231 387.122 403.42 382.354 404.501C377.585 405.366 372.383 405.799 366.748 405.799C363.063 405.799 359.162 405.475 355.043 404.826L351.467 404.501L350.492 400.933C350.492 400.501 350.167 400.068 349.516 399.635C349.083 398.987 348.649 398.446 348.216 398.014C347.132 396.716 345.832 394.986 344.314 392.823C342.797 390.661 342.472 387.957 343.339 384.713C341.822 382.334 340.955 379.847 340.738 377.252C339.871 378.982 339.112 380.712 338.462 382.443C338.029 383.956 337.595 385.47 337.161 386.984L335.861 391.201L331.634 391.85C331.201 392.283 330.767 392.931 330.334 393.796C330.117 394.661 330.117 395.31 330.334 395.743L331.634 399.311L328.383 402.231C327.95 402.879 327.408 403.42 326.758 403.853C326.107 404.285 325.565 404.718 325.132 405.15C324.698 407.529 324.048 409.8 323.181 411.963C322.531 414.125 321.772 416.288 320.905 418.45C319.822 421.911 318.738 425.263 317.654 428.507C316.787 431.751 316.353 434.995 316.353 438.239L315.053 442.456C313.969 444.186 312.56 445.483 310.826 446.349C309.309 447.214 307.792 447.971 306.275 448.619C304.107 449.484 302.59 450.349 301.723 451.214L300.747 455.432L295.871 456.08C293.053 456.729 290.994 457.162 289.693 457.378C288.609 457.594 287.309 457.702 285.792 457.702L281.565 457.378C278.964 454.783 276.797 452.836 275.063 451.539C273.545 450.025 271.703 448.727 269.535 447.646L267.585 445.051C266.718 443.321 266.176 441.807 265.959 440.509C265.742 438.996 265.417 437.482 264.984 435.968C264.55 433.156 263.9 431.21 263.033 430.129L258.156 425.263ZM361.871 340.92C358.837 345.245 355.91 349.787 353.093 354.544C354.61 354.328 356.019 354.22 357.319 354.22C358.837 354.22 360.354 354.112 361.871 353.896C369.457 353.463 376.502 352.922 383.004 352.274C389.507 351.625 396.551 350.544 404.137 349.03C402.403 341.028 400.453 332.918 398.285 324.7C396.334 316.266 394.167 307.831 391.783 299.397L390.157 302.641C384.738 308.48 379.536 314.752 374.551 321.456C369.566 328.16 365.447 334.54 362.196 340.595L361.871 340.92Z"/>
</mask>
<path d="M29.6356 343.542C27.4681 343.542 24.1085 343.217 19.5568 342.568C16.0888 338.892 12.9459 333.918 10.1281 327.646C7.52713 321.158 5.468 314.346 3.95075 307.209C2.65025 299.856 2 292.611 2 285.475C2.21675 278.122 3.51725 271.634 5.9015 266.011C5.9015 265.795 6.87688 263.199 8.82763 258.225C10.9951 253.251 13.7045 246.98 16.9558 239.41C20.207 231.625 23.8918 223.082 28.01 213.783C32.1283 204.267 36.2465 194.968 40.3648 185.885C44.483 176.802 48.3845 168.584 52.0693 161.231C55.9708 153.662 59.3304 147.823 62.1482 143.713C64.0989 140.686 65.8329 137.766 67.3502 134.955C69.0842 132.143 70.7098 129.548 72.2271 127.169C74.6113 123.277 76.7788 119.708 78.7296 116.464C80.8971 113.004 83.1729 109.976 85.5572 107.381C88.1582 104.57 90.9759 102.191 94.0105 100.244C97.045 98.0818 100.73 96.2435 105.065 94.7297C107.666 95.811 109.942 97.0004 111.892 98.298C113.843 99.3793 115.577 100.785 117.094 102.515L118.07 107.057C118.503 108.571 119.153 109.652 120.02 110.301C121.104 110.733 121.971 110.949 122.621 110.949C125.439 111.598 127.823 112.355 129.774 113.22C131.942 113.869 134.218 114.302 136.602 114.518C137.469 115.815 138.227 117.113 138.878 118.411C139.745 119.708 140.612 120.898 141.479 121.979C145.814 128.251 149.39 134.306 152.208 140.145C155.026 145.984 155.026 152.364 152.208 159.285L152.533 162.853C153.617 164.367 154.159 165.772 154.159 167.07C154.159 168.368 153.942 170.206 153.508 172.585C153.292 174.315 153.075 176.261 152.858 178.424C152.858 180.37 153.183 182.533 153.833 184.912L156.109 187.507C159.577 189.237 162.937 190.102 166.188 190.102C170.523 190.102 174.425 189.129 177.893 187.183C181.361 185.236 184.612 183.29 187.647 181.343C190.031 179.613 192.198 178.208 194.149 177.126C196.317 176.045 198.376 175.288 200.326 174.856C204.878 170.53 208.996 166.746 212.681 163.502C216.583 160.041 220.593 156.581 224.711 153.121C232.514 146.849 240.1 140.145 247.47 133.008C254.839 125.655 260.691 116.572 265.026 105.759C267.411 104.245 270.12 103.488 273.154 103.488C276.189 103.488 279.223 104.137 282.258 105.435C285.292 106.516 288.327 107.814 291.361 109.327C292.012 109.76 292.554 110.084 292.987 110.301C293.637 110.517 294.288 110.841 294.938 111.274C294.938 113.653 295.913 115.815 297.864 117.762C298.948 118.627 299.706 119.168 300.14 119.384C300.573 119.6 301.007 119.816 301.44 120.033C303.174 121.114 304.583 122.087 305.667 122.952C306.967 123.817 307.943 125.007 308.593 126.52C310.544 132.36 313.795 136.901 318.347 140.145C317.913 142.524 318.022 144.903 318.672 147.282C319.322 149.444 320.081 151.607 320.948 153.77C321.381 154.635 321.707 155.5 321.923 156.365C322.14 157.014 322.465 157.879 322.899 158.96L315.746 158.311L316.721 165.448C317.371 169.125 317.046 173.234 315.746 177.775C314.662 182.317 313.362 185.885 311.844 188.48C312.278 194.968 312.495 200.158 312.495 204.051C312.495 207.728 312.278 211.188 311.844 214.432C311.411 217.676 310.652 220.812 309.568 223.839C308.702 226.651 307.509 229.678 305.992 232.922C306.859 249.359 304.908 264.389 300.14 278.014C295.588 291.638 290.603 304.398 285.184 316.292C284.534 317.806 283.884 319.212 283.233 320.509C282.583 321.807 282.041 323.105 281.608 324.402C279.223 325.051 277.056 325.808 275.105 326.673C273.154 327.538 271.312 328.511 269.578 329.592C267.194 331.106 264.81 332.404 262.425 333.485C260.041 334.35 257.548 334.783 254.947 334.783C244.543 327.214 239.125 314.13 238.691 295.531C238.474 276.932 242.484 253.251 250.721 224.488C252.238 223.407 252.888 221.785 252.672 219.622V216.054L249.42 215.729C248.337 215.729 247.361 215.838 246.494 216.054C245.627 216.27 244.977 217.243 244.543 218.973C237.607 223.947 230.021 229.138 221.785 234.544C213.765 239.735 205.42 244.601 196.75 249.142C188.08 253.468 179.193 257.144 170.09 260.172C161.203 262.983 152.533 264.389 144.08 264.389C122.405 264.389 106.04 253.359 94.9858 231.3L92.0597 225.461L88.8084 230.652C88.1582 231.733 86.9661 233.896 85.2321 237.14C83.7148 240.167 82.0892 243.736 80.3552 247.845C78.8379 251.954 77.4291 256.171 76.1286 260.496C75.0448 264.821 74.7197 268.606 75.1532 271.85C72.5522 274.229 69.9512 276.932 67.3502 279.96C64.9659 282.988 63.2319 286.448 62.1482 290.341C61.7147 291.422 61.6063 292.503 61.823 293.585C62.0398 294.45 62.3649 295.423 62.7984 296.504C62.5817 298.018 62.1482 299.099 61.4979 299.748C60.8477 300.397 60.089 301.046 59.222 301.694C58.1383 302.776 57.0545 303.965 55.9708 305.263C54.887 306.344 53.9117 307.642 53.0447 309.156C52.6112 310.453 52.286 311.859 52.0693 313.373C51.8525 314.67 51.6358 315.86 51.419 316.941C51.419 319.32 51.0939 320.942 50.4437 321.807C48.2762 326.349 46.3254 330.133 44.5914 333.161C43.0742 335.972 41.5569 338.135 40.0397 339.649C38.5224 341.163 36.8968 342.136 35.1628 342.568C33.6455 343.217 31.8031 343.542 29.6356 343.542Z" fill="#FFBC42"/>
<path d="M241.783 212.884L246.009 209.64L246.334 202.828C251.753 189.636 257.28 176.984 262.916 164.874C268.768 152.763 274.837 140.328 281.123 127.568C283.073 123.459 285.024 119.35 286.975 115.241C289.142 111.132 291.202 106.915 293.152 102.59C292.936 101.725 292.827 100.86 292.827 99.9945C292.827 98.9131 293.044 97.7237 293.477 96.4261C296.512 92.1008 298.896 88.2081 300.63 84.7478C302.581 81.2876 304.423 77.7193 306.157 74.0428C308.108 69.7175 310.167 65.3922 312.335 61.0669C314.719 56.7416 317.645 52.5245 321.113 48.4155L323.389 45.1715L326.965 45.4959C327.832 45.0634 328.699 44.739 329.566 44.5227C330.65 44.0902 331.951 43.8739 333.468 43.8739L339.32 44.8471C346.473 41.6031 352.759 36.9535 358.177 30.8981C363.813 24.6264 369.448 17.1653 375.084 8.51474L378.985 3L384.187 6.24396C385.271 6.89275 387.005 7.54155 389.389 8.19034C391.774 8.83913 394.266 9.59606 396.867 10.4611C401.419 11.5424 405.862 12.84 410.197 14.3539C414.532 15.6515 417.892 17.4897 420.276 19.8686L421.902 22.7882C422.335 25.1671 422.661 27.3297 422.877 29.2761C423.311 31.2225 423.744 33.1688 424.178 35.1152C425.045 39.6568 425.803 44.1983 426.454 48.7399C427.104 53.0651 427.537 57.9311 427.754 63.3377C428.838 67.663 429.813 72.0964 430.68 76.6379C431.764 80.9632 432.739 85.2885 433.606 89.6138C434.69 95.8854 435.882 101.941 437.183 107.78C438.483 113.403 440.217 118.809 442.385 124C444.552 124 445.853 124.108 446.286 124.324C448.887 123.243 451.922 122.594 455.39 122.378L459.616 122.053L460.917 125.946C461.35 126.595 461.892 127.244 462.543 127.893C463.193 128.541 463.951 129.19 464.818 129.839C468.286 130.055 470.779 130.812 472.296 132.11C474.03 133.191 475.439 134.272 476.523 135.354C476.956 135.786 477.498 136.327 478.149 136.976C478.799 137.408 479.341 137.733 479.774 137.949L485.626 140.22L482.375 146.383C479.991 150.925 476.306 155.358 471.321 159.683C466.552 164.009 461.134 167.577 455.065 170.388C455.498 171.902 455.715 173.308 455.715 174.606C455.932 175.903 456.257 177.417 456.69 179.147C457.557 183.472 458.208 188.014 458.641 192.772C459.291 197.313 459.291 202.071 458.641 207.045C456.474 212.668 453.873 217.75 450.838 222.292C448.02 226.617 444.552 230.618 440.434 234.294C436.533 237.755 432.089 240.674 427.104 243.053C422.119 245.216 416.917 246.405 411.498 246.622C408.463 245.973 406.188 245.216 404.67 244.351C403.37 243.486 402.178 242.621 401.094 241.756C399.36 240.458 397.951 239.593 396.867 239.16L392.641 237.214L393.941 232.348C394.591 230.618 394.483 229.104 393.616 227.807C392.966 226.509 391.449 224.779 389.064 222.616C388.197 221.967 387.439 221.319 386.788 220.67C386.138 219.805 385.38 218.94 384.513 218.075L378.01 210.614L388.739 207.694C395.242 205.964 399.577 203.801 401.744 201.206C403.912 198.395 404.779 193.529 404.345 186.608C398.926 185.527 394.483 185.419 391.015 186.284C387.547 186.933 384.079 187.69 380.611 188.555C375.626 189.852 370.749 191.042 365.98 192.123C361.212 192.988 356.01 193.421 350.374 193.421C346.69 193.421 342.788 193.096 338.67 192.447L335.094 192.123L334.118 188.555C334.118 188.122 333.793 187.69 333.143 187.257C332.709 186.608 332.276 186.068 331.842 185.635C330.758 184.337 329.458 182.607 327.941 180.445C326.423 178.282 326.098 175.579 326.965 172.335C325.448 169.956 324.581 167.469 324.364 164.874C323.497 166.604 322.739 168.334 322.088 170.064C321.655 171.578 321.221 173.092 320.788 174.606L319.487 178.823L315.261 179.472C314.827 179.904 314.394 180.553 313.96 181.418C313.744 182.283 313.744 182.932 313.96 183.364L315.261 186.933L312.01 189.852C311.576 190.501 311.034 191.042 310.384 191.474C309.734 191.907 309.192 192.339 308.758 192.772C308.325 195.151 307.675 197.421 306.808 199.584C306.157 201.747 305.399 203.909 304.532 206.072C303.448 209.532 302.364 212.884 301.28 216.128C300.413 219.372 299.98 222.616 299.98 225.86L298.679 230.077C297.596 231.807 296.187 233.105 294.453 233.97C292.936 234.835 291.418 235.592 289.901 236.241C287.734 237.106 286.216 237.971 285.349 238.836L284.374 243.053L279.497 243.702C276.679 244.351 274.62 244.783 273.32 245C272.236 245.216 270.935 245.324 269.418 245.324L265.192 245C262.591 242.404 260.423 240.458 258.689 239.16C257.172 237.647 255.329 236.349 253.162 235.268L251.211 232.673C250.344 230.942 249.802 229.429 249.586 228.131C249.369 226.617 249.044 225.103 248.61 223.589C248.177 220.778 247.526 218.832 246.659 217.75L241.783 212.884ZM345.497 128.541C342.463 132.867 339.537 137.408 336.719 142.166C338.236 141.95 339.645 141.842 340.946 141.842C342.463 141.842 343.98 141.733 345.497 141.517C353.084 141.085 360.128 140.544 366.631 139.895C373.133 139.246 380.178 138.165 387.764 136.651C386.03 128.649 384.079 120.54 381.912 112.322C379.961 103.887 377.793 95.4529 375.409 87.0186L373.783 90.2626C368.365 96.1017 363.163 102.373 358.177 109.078C353.192 115.782 349.074 122.162 345.823 128.217L345.497 128.541Z" fill="#FFBC42"/>
<path d="M258.156 425.263L262.383 422.019L262.708 415.207C268.127 402.014 273.654 389.363 279.289 377.252C285.141 365.141 291.21 352.706 297.496 339.947C299.447 335.838 301.398 331.729 303.348 327.62C305.516 323.511 307.575 319.293 309.526 314.968C309.309 314.103 309.201 313.238 309.201 312.373C309.201 311.292 309.417 310.102 309.851 308.805C312.885 304.479 315.27 300.587 317.004 297.126C318.954 293.666 320.797 290.098 322.531 286.421C324.482 282.096 326.541 277.771 328.708 273.445C331.092 269.12 334.019 264.903 337.487 260.794L339.763 257.55L343.339 257.874C344.206 257.442 345.073 257.117 345.94 256.901C347.024 256.469 348.324 256.252 349.841 256.252L355.694 257.226C362.846 253.982 369.132 249.332 374.551 243.277C380.186 237.005 385.822 229.544 391.457 220.893L395.359 215.378L400.561 218.622C401.645 219.271 403.379 219.92 405.763 220.569C408.147 221.218 410.64 221.975 413.241 222.84C417.793 223.921 422.236 225.218 426.571 226.732C430.906 228.03 434.266 229.868 436.65 232.247L438.275 235.167C438.709 237.546 439.034 239.708 439.251 241.655C439.684 243.601 440.118 245.547 440.551 247.494C441.418 252.035 442.177 256.577 442.827 261.118C443.477 265.444 443.911 270.31 444.128 275.716C445.211 280.041 446.187 284.475 447.054 289.016C448.138 293.342 449.113 297.667 449.98 301.992C451.064 308.264 452.256 314.319 453.556 320.158C454.857 325.781 456.591 331.188 458.758 336.378C460.926 336.378 462.226 336.486 462.66 336.703C465.261 335.621 468.295 334.973 471.763 334.756L475.99 334.432L477.29 338.325C477.724 338.973 478.266 339.622 478.916 340.271C479.566 340.92 480.325 341.569 481.192 342.217C484.66 342.434 487.153 343.191 488.67 344.488C490.404 345.569 491.813 346.651 492.897 347.732C493.33 348.165 493.872 348.705 494.522 349.354C495.172 349.787 495.714 350.111 496.148 350.327L502 352.598L498.749 358.762C496.365 363.303 492.68 367.737 487.694 372.062C482.926 376.387 477.507 379.955 471.438 382.767C471.872 384.281 472.089 385.686 472.089 386.984C472.305 388.282 472.63 389.795 473.064 391.526C473.931 395.851 474.581 400.392 475.015 405.15C475.665 409.692 475.665 414.45 475.015 419.424C472.847 425.047 470.246 430.129 467.212 434.67C464.394 438.996 460.926 442.996 456.808 446.673C452.906 450.133 448.463 453.053 443.477 455.432C438.492 457.594 433.29 458.784 427.871 459C424.837 458.351 422.561 457.594 421.044 456.729C419.743 455.864 418.551 454.999 417.467 454.134C415.733 452.836 414.325 451.971 413.241 451.539L409.014 449.592L410.315 444.727C410.965 442.996 410.857 441.483 409.99 440.185C409.339 438.887 407.822 437.157 405.438 434.995C404.571 434.346 403.812 433.697 403.162 433.048C402.512 432.183 401.753 431.318 400.886 430.453L394.384 422.992L405.113 420.072C411.615 418.342 415.95 416.18 418.118 413.585C420.285 410.773 421.152 405.907 420.719 398.987C415.3 397.905 410.857 397.797 407.389 398.662C403.921 399.311 400.453 400.068 396.985 400.933C391.999 402.231 387.122 403.42 382.354 404.501C377.585 405.366 372.383 405.799 366.748 405.799C363.063 405.799 359.162 405.475 355.043 404.826L351.467 404.501L350.492 400.933C350.492 400.501 350.167 400.068 349.516 399.635C349.083 398.987 348.649 398.446 348.216 398.014C347.132 396.716 345.832 394.986 344.314 392.823C342.797 390.661 342.472 387.957 343.339 384.713C341.822 382.334 340.955 379.847 340.738 377.252C339.871 378.982 339.112 380.712 338.462 382.443C338.029 383.956 337.595 385.47 337.161 386.984L335.861 391.201L331.634 391.85C331.201 392.283 330.767 392.931 330.334 393.796C330.117 394.661 330.117 395.31 330.334 395.743L331.634 399.311L328.383 402.231C327.95 402.879 327.408 403.42 326.758 403.853C326.107 404.285 325.565 404.718 325.132 405.15C324.698 407.529 324.048 409.8 323.181 411.963C322.531 414.125 321.772 416.288 320.905 418.45C319.822 421.911 318.738 425.263 317.654 428.507C316.787 431.751 316.353 434.995 316.353 438.239L315.053 442.456C313.969 444.186 312.56 445.483 310.826 446.349C309.309 447.214 307.792 447.971 306.275 448.619C304.107 449.484 302.59 450.349 301.723 451.214L300.747 455.432L295.871 456.08C293.053 456.729 290.994 457.162 289.693 457.378C288.609 457.594 287.309 457.702 285.792 457.702L281.565 457.378C278.964 454.783 276.797 452.836 275.063 451.539C273.545 450.025 271.703 448.727 269.535 447.646L267.585 445.051C266.718 443.321 266.176 441.807 265.959 440.509C265.742 438.996 265.417 437.482 264.984 435.968C264.55 433.156 263.9 431.21 263.033 430.129L258.156 425.263ZM361.871 340.92C358.837 345.245 355.91 349.787 353.093 354.544C354.61 354.328 356.019 354.22 357.319 354.22C358.837 354.22 360.354 354.112 361.871 353.896C369.457 353.463 376.502 352.922 383.004 352.274C389.507 351.625 396.551 350.544 404.137 349.03C402.403 341.028 400.453 332.918 398.285 324.7C396.334 316.266 394.167 307.831 391.783 299.397L390.157 302.641C384.738 308.48 379.536 314.752 374.551 321.456C369.566 328.16 365.447 334.54 362.196 340.595L361.871 340.92Z" fill="#FFBC42"/>
<path d="M29.6356 343.542C27.4681 343.542 24.1085 343.217 19.5568 342.568C16.0888 338.892 12.9459 333.918 10.1281 327.646C7.52713 321.158 5.468 314.346 3.95075 307.209C2.65025 299.856 2 292.611 2 285.475C2.21675 278.122 3.51725 271.634 5.9015 266.011C5.9015 265.795 6.87688 263.199 8.82763 258.225C10.9951 253.251 13.7045 246.98 16.9558 239.41C20.207 231.625 23.8918 223.082 28.01 213.783C32.1283 204.267 36.2465 194.968 40.3648 185.885C44.483 176.802 48.3845 168.584 52.0693 161.231C55.9708 153.662 59.3304 147.823 62.1482 143.713C64.0989 140.686 65.8329 137.766 67.3502 134.955C69.0842 132.143 70.7098 129.548 72.2271 127.169C74.6113 123.277 76.7788 119.708 78.7296 116.464C80.8971 113.004 83.1729 109.976 85.5572 107.381C88.1582 104.57 90.9759 102.191 94.0105 100.244C97.045 98.0818 100.73 96.2435 105.065 94.7297C107.666 95.811 109.942 97.0004 111.892 98.298C113.843 99.3793 115.577 100.785 117.094 102.515L118.07 107.057C118.503 108.571 119.153 109.652 120.02 110.301C121.104 110.733 121.971 110.949 122.621 110.949C125.439 111.598 127.823 112.355 129.774 113.22C131.942 113.869 134.218 114.302 136.602 114.518C137.469 115.815 138.227 117.113 138.878 118.411C139.745 119.708 140.612 120.898 141.479 121.979C145.814 128.251 149.39 134.306 152.208 140.145C155.026 145.984 155.026 152.364 152.208 159.285L152.533 162.853C153.617 164.367 154.159 165.772 154.159 167.07C154.159 168.368 153.942 170.206 153.508 172.585C153.292 174.315 153.075 176.261 152.858 178.424C152.858 180.37 153.183 182.533 153.833 184.912L156.109 187.507C159.577 189.237 162.937 190.102 166.188 190.102C170.523 190.102 174.425 189.129 177.893 187.183C181.361 185.236 184.612 183.29 187.647 181.343C190.031 179.613 192.198 178.208 194.149 177.126C196.317 176.045 198.376 175.288 200.326 174.856C204.878 170.53 208.996 166.746 212.681 163.502C216.583 160.041 220.593 156.581 224.711 153.121C232.514 146.849 240.1 140.145 247.47 133.008C254.839 125.655 260.691 116.572 265.026 105.759C267.411 104.245 270.12 103.488 273.154 103.488C276.189 103.488 279.223 104.137 282.258 105.435C285.292 106.516 288.327 107.814 291.361 109.327C292.012 109.76 292.554 110.084 292.987 110.301C293.637 110.517 294.288 110.841 294.938 111.274C294.938 113.653 295.913 115.815 297.864 117.762C298.948 118.627 299.706 119.168 300.14 119.384C300.573 119.6 301.007 119.816 301.44 120.033C303.174 121.114 304.583 122.087 305.667 122.952C306.967 123.817 307.943 125.007 308.593 126.52C310.544 132.36 313.795 136.901 318.347 140.145C317.913 142.524 318.022 144.903 318.672 147.282C319.322 149.444 320.081 151.607 320.948 153.77C321.381 154.635 321.707 155.5 321.923 156.365C322.14 157.014 322.465 157.879 322.899 158.96L315.746 158.311L316.721 165.448C317.371 169.125 317.046 173.234 315.746 177.775C314.662 182.317 313.362 185.885 311.844 188.48C312.278 194.968 312.495 200.158 312.495 204.051C312.495 207.728 312.278 211.188 311.844 214.432C311.411 217.676 310.652 220.812 309.568 223.839C308.702 226.651 307.509 229.678 305.992 232.922C306.859 249.359 304.908 264.389 300.14 278.014C295.588 291.638 290.603 304.398 285.184 316.292C284.534 317.806 283.884 319.212 283.233 320.509C282.583 321.807 282.041 323.105 281.608 324.402C279.223 325.051 277.056 325.808 275.105 326.673C273.154 327.538 271.312 328.511 269.578 329.592C267.194 331.106 264.81 332.404 262.425 333.485C260.041 334.35 257.548 334.783 254.947 334.783C244.543 327.214 239.125 314.13 238.691 295.531C238.474 276.932 242.484 253.251 250.721 224.488C252.238 223.407 252.888 221.785 252.672 219.622V216.054L249.42 215.729C248.337 215.729 247.361 215.838 246.494 216.054C245.627 216.27 244.977 217.243 244.543 218.973C237.607 223.947 230.021 229.138 221.785 234.544C213.765 239.735 205.42 244.601 196.75 249.142C188.08 253.468 179.193 257.144 170.09 260.172C161.203 262.983 152.533 264.389 144.08 264.389C122.405 264.389 106.04 253.359 94.9858 231.3L92.0597 225.461L88.8084 230.652C88.1582 231.733 86.9661 233.896 85.2321 237.14C83.7148 240.167 82.0892 243.736 80.3552 247.845C78.8379 251.954 77.4291 256.171 76.1286 260.496C75.0448 264.821 74.7197 268.606 75.1532 271.85C72.5522 274.229 69.9512 276.932 67.3502 279.96C64.9659 282.988 63.2319 286.448 62.1482 290.341C61.7147 291.422 61.6063 292.503 61.823 293.585C62.0398 294.45 62.3649 295.423 62.7984 296.504C62.5817 298.018 62.1482 299.099 61.4979 299.748C60.8477 300.397 60.089 301.046 59.222 301.694C58.1383 302.776 57.0545 303.965 55.9708 305.263C54.887 306.344 53.9117 307.642 53.0447 309.156C52.6112 310.453 52.286 311.859 52.0693 313.373C51.8525 314.67 51.6358 315.86 51.419 316.941C51.419 319.32 51.0939 320.942 50.4437 321.807C48.2762 326.349 46.3254 330.133 44.5914 333.161C43.0742 335.972 41.5569 338.135 40.0397 339.649C38.5224 341.163 36.8968 342.136 35.1628 342.568C33.6455 343.217 31.8031 343.542 29.6356 343.542Z" stroke="black" stroke-width="4" mask="url(#path-1-outside-1_3_67)"/>
<path d="M241.783 212.884L246.009 209.64L246.334 202.828C251.753 189.636 257.28 176.984 262.916 164.874C268.768 152.763 274.837 140.328 281.123 127.568C283.073 123.459 285.024 119.35 286.975 115.241C289.142 111.132 291.202 106.915 293.152 102.59C292.936 101.725 292.827 100.86 292.827 99.9945C292.827 98.9131 293.044 97.7237 293.477 96.4261C296.512 92.1008 298.896 88.2081 300.63 84.7478C302.581 81.2876 304.423 77.7193 306.157 74.0428C308.108 69.7175 310.167 65.3922 312.335 61.0669C314.719 56.7416 317.645 52.5245 321.113 48.4155L323.389 45.1715L326.965 45.4959C327.832 45.0634 328.699 44.739 329.566 44.5227C330.65 44.0902 331.951 43.8739 333.468 43.8739L339.32 44.8471C346.473 41.6031 352.759 36.9535 358.177 30.8981C363.813 24.6264 369.448 17.1653 375.084 8.51474L378.985 3L384.187 6.24396C385.271 6.89275 387.005 7.54155 389.389 8.19034C391.774 8.83913 394.266 9.59606 396.867 10.4611C401.419 11.5424 405.862 12.84 410.197 14.3539C414.532 15.6515 417.892 17.4897 420.276 19.8686L421.902 22.7882C422.335 25.1671 422.661 27.3297 422.877 29.2761C423.311 31.2225 423.744 33.1688 424.178 35.1152C425.045 39.6568 425.803 44.1983 426.454 48.7399C427.104 53.0651 427.537 57.9311 427.754 63.3377C428.838 67.663 429.813 72.0964 430.68 76.6379C431.764 80.9632 432.739 85.2885 433.606 89.6138C434.69 95.8854 435.882 101.941 437.183 107.78C438.483 113.403 440.217 118.809 442.385 124C444.552 124 445.853 124.108 446.286 124.324C448.887 123.243 451.922 122.594 455.39 122.378L459.616 122.053L460.917 125.946C461.35 126.595 461.892 127.244 462.543 127.893C463.193 128.541 463.951 129.19 464.818 129.839C468.286 130.055 470.779 130.812 472.296 132.11C474.03 133.191 475.439 134.272 476.523 135.354C476.956 135.786 477.498 136.327 478.149 136.976C478.799 137.408 479.341 137.733 479.774 137.949L485.626 140.22L482.375 146.383C479.991 150.925 476.306 155.358 471.321 159.683C466.552 164.009 461.134 167.577 455.065 170.388C455.498 171.902 455.715 173.308 455.715 174.606C455.932 175.903 456.257 177.417 456.69 179.147C457.557 183.472 458.208 188.014 458.641 192.772C459.291 197.313 459.291 202.071 458.641 207.045C456.474 212.668 453.873 217.75 450.838 222.292C448.02 226.617 444.552 230.618 440.434 234.294C436.533 237.755 432.089 240.674 427.104 243.053C422.119 245.216 416.917 246.405 411.498 246.622C408.463 245.973 406.188 245.216 404.67 244.351C403.37 243.486 402.178 242.621 401.094 241.756C399.36 240.458 397.951 239.593 396.867 239.16L392.641 237.214L393.941 232.348C394.591 230.618 394.483 229.104 393.616 227.807C392.966 226.509 391.449 224.779 389.064 222.616C388.197 221.967 387.439 221.319 386.788 220.67C386.138 219.805 385.38 218.94 384.513 218.075L378.01 210.614L388.739 207.694C395.242 205.964 399.577 203.801 401.744 201.206C403.912 198.395 404.779 193.529 404.345 186.608C398.926 185.527 394.483 185.419 391.015 186.284C387.547 186.933 384.079 187.69 380.611 188.555C375.626 189.852 370.749 191.042 365.98 192.123C361.212 192.988 356.01 193.421 350.374 193.421C346.69 193.421 342.788 193.096 338.67 192.447L335.094 192.123L334.118 188.555C334.118 188.122 333.793 187.69 333.143 187.257C332.709 186.608 332.276 186.068 331.842 185.635C330.758 184.337 329.458 182.607 327.941 180.445C326.423 178.282 326.098 175.579 326.965 172.335C325.448 169.956 324.581 167.469 324.364 164.874C323.497 166.604 322.739 168.334 322.088 170.064C321.655 171.578 321.221 173.092 320.788 174.606L319.487 178.823L315.261 179.472C314.827 179.904 314.394 180.553 313.96 181.418C313.744 182.283 313.744 182.932 313.96 183.364L315.261 186.933L312.01 189.852C311.576 190.501 311.034 191.042 310.384 191.474C309.734 191.907 309.192 192.339 308.758 192.772C308.325 195.151 307.675 197.421 306.808 199.584C306.157 201.747 305.399 203.909 304.532 206.072C303.448 209.532 302.364 212.884 301.28 216.128C300.413 219.372 299.98 222.616 299.98 225.86L298.679 230.077C297.596 231.807 296.187 233.105 294.453 233.97C292.936 234.835 291.418 235.592 289.901 236.241C287.734 237.106 286.216 237.971 285.349 238.836L284.374 243.053L279.497 243.702C276.679 244.351 274.62 244.783 273.32 245C272.236 245.216 270.935 245.324 269.418 245.324L265.192 245C262.591 242.404 260.423 240.458 258.689 239.16C257.172 237.647 255.329 236.349 253.162 235.268L251.211 232.673C250.344 230.942 249.802 229.429 249.586 228.131C249.369 226.617 249.044 225.103 248.61 223.589C248.177 220.778 247.526 218.832 246.659 217.75L241.783 212.884ZM345.497 128.541C342.463 132.867 339.537 137.408 336.719 142.166C338.236 141.95 339.645 141.842 340.946 141.842C342.463 141.842 343.98 141.733 345.497 141.517C353.084 141.085 360.128 140.544 366.631 139.895C373.133 139.246 380.178 138.165 387.764 136.651C386.03 128.649 384.079 120.54 381.912 112.322C379.961 103.887 377.793 95.4529 375.409 87.0186L373.783 90.2626C368.365 96.1017 363.163 102.373 358.177 109.078C353.192 115.782 349.074 122.162 345.823 128.217L345.497 128.541Z" stroke="black" stroke-width="4" mask="url(#path-1-outside-1_3_67)"/>
<path d="M258.156 425.263L262.383 422.019L262.708 415.207C268.127 402.014 273.654 389.363 279.289 377.252C285.141 365.141 291.21 352.706 297.496 339.947C299.447 335.838 301.398 331.729 303.348 327.62C305.516 323.511 307.575 319.293 309.526 314.968C309.309 314.103 309.201 313.238 309.201 312.373C309.201 311.292 309.417 310.102 309.851 308.805C312.885 304.479 315.27 300.587 317.004 297.126C318.954 293.666 320.797 290.098 322.531 286.421C324.482 282.096 326.541 277.771 328.708 273.445C331.092 269.12 334.019 264.903 337.487 260.794L339.763 257.55L343.339 257.874C344.206 257.442 345.073 257.117 345.94 256.901C347.024 256.469 348.324 256.252 349.841 256.252L355.694 257.226C362.846 253.982 369.132 249.332 374.551 243.277C380.186 237.005 385.822 229.544 391.457 220.893L395.359 215.378L400.561 218.622C401.645 219.271 403.379 219.92 405.763 220.569C408.147 221.218 410.64 221.975 413.241 222.84C417.793 223.921 422.236 225.218 426.571 226.732C430.906 228.03 434.266 229.868 436.65 232.247L438.275 235.167C438.709 237.546 439.034 239.708 439.251 241.655C439.684 243.601 440.118 245.547 440.551 247.494C441.418 252.035 442.177 256.577 442.827 261.118C443.477 265.444 443.911 270.31 444.128 275.716C445.211 280.041 446.187 284.475 447.054 289.016C448.138 293.342 449.113 297.667 449.98 301.992C451.064 308.264 452.256 314.319 453.556 320.158C454.857 325.781 456.591 331.188 458.758 336.378C460.926 336.378 462.226 336.486 462.66 336.703C465.261 335.621 468.295 334.973 471.763 334.756L475.99 334.432L477.29 338.325C477.724 338.973 478.266 339.622 478.916 340.271C479.566 340.92 480.325 341.569 481.192 342.217C484.66 342.434 487.153 343.191 488.67 344.488C490.404 345.569 491.813 346.651 492.897 347.732C493.33 348.165 493.872 348.705 494.522 349.354C495.172 349.787 495.714 350.111 496.148 350.327L502 352.598L498.749 358.762C496.365 363.303 492.68 367.737 487.694 372.062C482.926 376.387 477.507 379.955 471.438 382.767C471.872 384.281 472.089 385.686 472.089 386.984C472.305 388.282 472.63 389.795 473.064 391.526C473.931 395.851 474.581 400.392 475.015 405.15C475.665 409.692 475.665 414.45 475.015 419.424C472.847 425.047 470.246 430.129 467.212 434.67C464.394 438.996 460.926 442.996 456.808 446.673C452.906 450.133 448.463 453.053 443.477 455.432C438.492 457.594 433.29 458.784 427.871 459C424.837 458.351 422.561 457.594 421.044 456.729C419.743 455.864 418.551 454.999 417.467 454.134C415.733 452.836 414.325 451.971 413.241 451.539L409.014 449.592L410.315 444.727C410.965 442.996 410.857 441.483 409.99 440.185C409.339 438.887 407.822 437.157 405.438 434.995C404.571 434.346 403.812 433.697 403.162 433.048C402.512 432.183 401.753 431.318 400.886 430.453L394.384 422.992L405.113 420.072C411.615 418.342 415.95 416.18 418.118 413.585C420.285 410.773 421.152 405.907 420.719 398.987C415.3 397.905 410.857 397.797 407.389 398.662C403.921 399.311 400.453 400.068 396.985 400.933C391.999 402.231 387.122 403.42 382.354 404.501C377.585 405.366 372.383 405.799 366.748 405.799C363.063 405.799 359.162 405.475 355.043 404.826L351.467 404.501L350.492 400.933C350.492 400.501 350.167 400.068 349.516 399.635C349.083 398.987 348.649 398.446 348.216 398.014C347.132 396.716 345.832 394.986 344.314 392.823C342.797 390.661 342.472 387.957 343.339 384.713C341.822 382.334 340.955 379.847 340.738 377.252C339.871 378.982 339.112 380.712 338.462 382.443C338.029 383.956 337.595 385.47 337.161 386.984L335.861 391.201L331.634 391.85C331.201 392.283 330.767 392.931 330.334 393.796C330.117 394.661 330.117 395.31 330.334 395.743L331.634 399.311L328.383 402.231C327.95 402.879 327.408 403.42 326.758 403.853C326.107 404.285 325.565 404.718 325.132 405.15C324.698 407.529 324.048 409.8 323.181 411.963C322.531 414.125 321.772 416.288 320.905 418.45C319.822 421.911 318.738 425.263 317.654 428.507C316.787 431.751 316.353 434.995 316.353 438.239L315.053 442.456C313.969 444.186 312.56 445.483 310.826 446.349C309.309 447.214 307.792 447.971 306.275 448.619C304.107 449.484 302.59 450.349 301.723 451.214L300.747 455.432L295.871 456.08C293.053 456.729 290.994 457.162 289.693 457.378C288.609 457.594 287.309 457.702 285.792 457.702L281.565 457.378C278.964 454.783 276.797 452.836 275.063 451.539C273.545 450.025 271.703 448.727 269.535 447.646L267.585 445.051C266.718 443.321 266.176 441.807 265.959 440.509C265.742 438.996 265.417 437.482 264.984 435.968C264.55 433.156 263.9 431.21 263.033 430.129L258.156 425.263ZM361.871 340.92C358.837 345.245 355.91 349.787 353.093 354.544C354.61 354.328 356.019 354.22 357.319 354.22C358.837 354.22 360.354 354.112 361.871 353.896C369.457 353.463 376.502 352.922 383.004 352.274C389.507 351.625 396.551 350.544 404.137 349.03C402.403 341.028 400.453 332.918 398.285 324.7C396.334 316.266 394.167 307.831 391.783 299.397L390.157 302.641C384.738 308.48 379.536 314.752 374.551 321.456C369.566 328.16 365.447 334.54 362.196 340.595L361.871 340.92Z" stroke="black" stroke-width="4" mask="url(#path-1-outside-1_3_67)"/>
</svg>
